<svg width="942" height="689" viewBox="0 0 942 689" fill="none" xmlns="http://www.w3.org/2000/svg">
<g clip-path="url(#clip0_6120_57)">
<path d="M848.739 242.5H847.739C836.869 242.488 826.448 238.164 818.761 230.478C811.075 222.791 806.752 212.37 806.739 201.5V187.5H684.739V185.5H808.739V201.5C808.751 211.667 812.728 221.428 819.824 228.708C826.92 235.989 836.576 240.215 846.739 240.487V185.5H875.739C879.716 185.496 883.529 183.914 886.341 181.102C889.153 178.29 890.735 174.477 890.739 170.5V17.5C890.735 13.5231 889.153 9.71044 886.341 6.89837C883.529 4.0863 879.716 2.5045 875.739 2.5H493.739C489.762 2.5045 485.95 4.0863 483.138 6.89837C480.326 9.71044 478.744 13.5231 478.739 17.5V128.5H476.739V17.5C476.744 12.9929 478.537 8.67181 481.724 5.48479C484.911 2.29777 489.232 0.505074 493.739 0.5H875.739C880.246 0.505074 884.567 2.29777 887.754 5.48479C890.941 8.67181 892.734 12.9929 892.739 17.5V170.5C892.734 175.007 890.941 179.328 887.754 182.515C884.567 185.702 880.246 187.495 875.739 187.5H848.739V242.5Z" fill="#CCCCCC"/>
<path d="M812.719 51.01C812.593 47.7836 811.224 44.7312 808.897 42.4923C806.571 40.2534 803.468 39.0019 800.239 39H569.239C565.924 39 562.745 40.317 560.4 42.6612C558.056 45.0054 556.739 48.1848 556.739 51.5C556.739 54.8152 558.056 57.9946 560.4 60.3388C562.745 62.683 565.924 64 569.239 64H800.239C803.553 63.9954 806.73 62.677 809.073 60.3338C811.416 57.9906 812.735 54.8138 812.739 51.5C812.743 51.3364 812.736 51.1728 812.719 51.01Z" fill="#CCCCCC"/>
<path d="M812.719 93.01C812.593 89.7836 811.224 86.7312 808.897 84.4923C806.571 82.2534 803.468 81.0019 800.239 81H569.239C565.924 81 562.745 82.317 560.4 84.6612C558.056 87.0054 556.739 90.1848 556.739 93.5C556.739 96.8152 558.056 99.9946 560.4 102.339C562.745 104.683 565.924 106 569.239 106H800.239C803.553 105.995 806.73 104.677 809.073 102.334C811.416 99.9906 812.735 96.8138 812.739 93.5C812.743 93.3364 812.736 93.1728 812.719 93.01Z" fill="#CCCCCC"/>
<path d="M812.719 135.01C812.593 131.784 811.224 128.731 808.897 126.492C806.571 124.253 803.468 123.002 800.239 123H569.239C567.407 123 565.597 123.403 563.938 124.181C562.279 124.959 560.811 126.092 559.639 127.5C559.125 128.123 558.67 128.793 558.279 129.5H668.739C672.716 129.505 676.529 131.087 679.341 133.899C682.153 136.711 683.734 140.523 683.739 144.5V148H800.239C803.553 147.995 806.73 146.677 809.073 144.334C811.416 141.991 812.735 138.814 812.739 135.5C812.743 135.336 812.736 135.173 812.719 135.01Z" fill="#CCCCCC"/>
<path d="M24.5177 685.205C25.0617 685.652 25.6059 686.079 26.1628 686.5H163.567C164.59 686.079 165.609 685.647 166.624 685.205C181.13 678.892 194.631 670.486 206.698 660.255C214.71 653.467 222.081 646.459 227.424 639.891C234.879 630.726 241.745 620.739 244.938 609.359C248.125 597.978 247.173 584.934 240.054 575.497C237.85 572.594 235.14 570.112 232.055 568.171C231.543 567.847 231.025 567.536 230.494 567.245C221.638 562.478 211.308 561.236 201.574 563.767C187.81 567.323 176.372 577.252 168.211 588.898C160.05 600.537 154.752 613.905 149.531 627.125C144.233 603.529 128.189 582.395 106.517 571.649C84.8513 560.904 57.9327 561.033 36.727 572.673C30.0547 576.357 24.0275 581.104 18.8825 586.728C18.3711 587.278 17.8721 587.842 17.38 588.412C7.0363 600.388 0.565589 615.726 0.0345786 631.542C-0.204162 641.756 1.8748 651.89 6.11528 661.184C10.3558 670.479 16.6475 678.691 24.5177 685.205Z" fill="#F2F2F2"/>
<path d="M158.074 686.5H160.017C160.043 686.066 160.076 685.638 160.114 685.205C160.794 676.732 162.215 668.336 164.363 660.112C169.292 641.338 177.709 623.659 189.177 607.998C200.612 592.287 215.027 578.981 231.602 568.838C231.723 568.768 231.827 568.672 231.905 568.557C231.984 568.441 232.035 568.309 232.055 568.171C232.087 567.99 232.066 567.804 231.996 567.634C231.926 567.464 231.809 567.318 231.659 567.212C231.509 567.106 231.332 567.045 231.149 567.036C230.965 567.027 230.783 567.07 230.623 567.16C230.579 567.186 230.536 567.214 230.494 567.245C221.104 572.968 212.387 579.729 204.508 587.401C190.414 601.149 179.05 617.441 171.015 635.415C163.927 651.158 159.585 667.997 158.178 685.205C158.139 685.638 158.106 686.072 158.074 686.5Z" fill="white"/>
<path d="M17.3796 588.411C17.3937 588.419 17.4091 588.423 17.4249 588.424C18.8433 588.684 20.2684 588.956 21.6805 589.247C33.2713 591.627 44.6176 595.073 55.5749 599.539C66.5034 603.999 77.0157 609.418 86.9886 615.732C96.9743 622.042 106.391 629.211 115.131 637.158C123.872 645.093 131.889 653.789 139.09 663.144C144.472 670.153 149.365 677.524 153.734 685.204C153.98 685.632 154.22 686.066 154.46 686.5H156.681C156.448 686.066 156.209 685.632 155.963 685.204C150.676 675.793 144.614 666.839 137.84 658.435C130.349 649.134 122.045 640.518 113.026 632.689C104.065 624.904 94.4476 617.908 84.2811 611.781C74.0723 605.628 63.339 600.392 52.2067 596.132C41.4038 592.002 30.2504 588.855 18.8822 586.727C18.565 586.669 18.2541 586.611 17.9366 586.553C16.7256 586.332 16.2073 588.159 17.3796 588.411Z" fill="white"/>
<path d="M56.0184 656.025C69.5492 654.164 83.2903 654.474 96.7235 656.943C110.118 659.392 123.048 663.912 135.05 670.343C141.795 673.967 148.196 678.197 154.176 682.979C155.153 683.76 153.77 685.126 152.802 684.353C142.31 676.007 130.548 669.395 117.964 664.77C105.479 660.152 92.3569 657.49 79.06 656.877C71.5362 656.532 63.9966 656.874 56.5349 657.899C56.2868 657.958 56.0254 657.921 55.8035 657.795C55.5817 657.669 55.4159 657.464 55.3398 657.22C55.2729 656.972 55.3066 656.707 55.4336 656.483C55.5606 656.26 55.7708 656.095 56.0184 656.025Z" fill="white"/>
<path d="M667.739 129.5H285.739C281.233 129.506 276.912 131.299 273.725 134.486C270.539 137.673 268.746 141.993 268.739 146.5V299.5C268.746 304.007 270.539 308.327 273.725 311.514C276.912 314.701 281.233 316.494 285.739 316.5H312.739V371.5H313.739C324.61 371.489 335.031 367.165 342.718 359.479C350.404 351.792 354.728 341.37 354.739 330.5V316.5H667.739C672.246 316.494 676.566 314.701 679.753 311.514C682.94 308.327 684.733 304.007 684.739 299.5V146.5C684.733 141.993 682.94 137.673 679.753 134.486C676.566 131.299 672.246 129.506 667.739 129.5ZM682.739 299.5C682.734 303.477 681.153 307.289 678.341 310.101C675.529 312.913 671.716 314.495 667.739 314.5H352.739V330.5C352.726 340.666 348.748 350.427 341.653 357.707C334.557 364.988 324.902 369.215 314.739 369.49V314.5H285.739C281.762 314.495 277.95 312.913 275.138 310.101C272.326 307.289 270.744 303.477 270.739 299.5V146.5C270.744 142.523 272.326 138.711 275.138 135.899C277.95 133.087 281.762 131.505 285.739 131.5H667.739C671.716 131.505 675.529 133.087 678.341 135.899C681.153 138.711 682.734 142.523 682.739 146.5V299.5Z" fill="#3F3D56"/>
<path d="M592.239 168H361.239C358.01 168.002 354.908 169.253 352.581 171.492C350.254 173.731 348.885 176.784 348.759 180.01C348.742 180.173 348.736 180.336 348.739 180.5C348.744 183.814 350.062 186.99 352.405 189.334C354.749 191.677 357.925 192.995 361.239 193H592.239C595.554 193 598.734 191.683 601.078 189.339C603.422 186.995 604.739 183.815 604.739 180.5C604.739 177.185 603.422 174.005 601.078 171.661C598.734 169.317 595.554 168 592.239 168Z" fill="#890AFF"/>
<path d="M592.239 210H361.239C358.01 210.002 354.908 211.253 352.581 213.492C350.254 215.731 348.885 218.784 348.759 222.01C348.742 222.173 348.736 222.336 348.739 222.5C348.744 225.814 350.062 228.99 352.405 231.334C354.749 233.677 357.925 234.995 361.239 235H592.239C595.554 235 598.734 233.683 601.078 231.339C603.422 228.995 604.739 225.815 604.739 222.5C604.739 219.185 603.422 216.005 601.078 213.661C598.734 211.317 595.554 210 592.239 210Z" fill="#890AFF"/>
<path d="M592.239 252H361.239C358.01 252.002 354.908 253.253 352.581 255.492C350.254 257.731 348.885 260.784 348.759 264.01C348.742 264.173 348.736 264.336 348.739 264.5C348.744 267.814 350.062 270.99 352.405 273.334C354.749 275.677 357.925 276.995 361.239 277H592.239C595.554 277 598.734 275.683 601.078 273.339C603.422 270.995 604.739 267.815 604.739 264.5C604.739 261.185 603.422 258.005 601.078 255.661C598.734 253.317 595.554 252 592.239 252Z" fill="#890AFF"/>
<path d="M224.726 473.22C224.276 473.22 223.826 473.192 223.379 473.135C221.841 472.947 220.359 472.435 219.032 471.634C217.705 470.833 216.562 469.76 215.679 468.486C214.795 467.213 214.19 465.767 213.904 464.243C213.618 462.72 213.658 461.153 214.02 459.645C214.105 459.295 214.209 458.95 214.33 458.611L180.965 415.897C179.497 414.002 178.678 411.683 178.631 409.286C178.584 406.888 179.312 404.54 180.705 402.588L192.392 386.356L207.668 398.141L201.531 408.684L225.834 451.282C226.322 451.327 226.807 451.406 227.285 451.519C229.903 452.148 232.2 453.715 233.74 455.924C235.28 458.134 235.956 460.831 235.641 463.505C235.326 466.18 234.041 468.646 232.029 470.436C230.017 472.226 227.419 473.217 224.726 473.22Z" fill="#A0616A"/>
<path d="M282.467 675.618L294.727 675.617L300.559 628.329L282.465 628.33L282.467 675.618Z" fill="#A0616A"/>
<path d="M318.371 687L279.84 687.002L279.84 672.115L303.484 672.114C305.439 672.114 307.374 672.499 309.181 673.247C310.987 673.995 312.628 675.091 314.01 676.474C315.393 677.856 316.489 679.497 317.238 681.303C317.986 683.109 318.371 685.045 318.371 687Z" fill="#2F2E41"/>
<path d="M181.467 675.618L193.727 675.617L199.559 628.329L181.465 628.33L181.467 675.618Z" fill="#A0616A"/>
<path d="M217.371 687L178.84 687.002L178.84 672.115L202.484 672.114C204.439 672.114 206.374 672.499 208.181 673.247C209.987 673.995 211.628 675.091 213.01 676.474C214.393 677.856 215.489 679.497 216.238 681.303C216.986 683.109 217.371 685.045 217.371 687Z" fill="#2F2E41"/>
<path d="M188.992 388.659L216.516 399.118L223.236 380.452C224.129 377.973 224.116 375.259 223.201 372.788C222.285 370.318 220.526 368.251 218.234 366.952C215.916 365.638 213.204 365.197 210.588 365.707C207.973 366.218 205.626 367.647 203.972 369.737L188.992 388.659Z" fill="#890AFF"/>
<path d="M280.288 637.445C279.189 637.444 278.121 637.077 277.254 636.403C276.386 635.728 275.767 634.784 275.495 633.719C261.77 581.208 247.833 554.888 232.889 524.453C232.515 523.694 231.909 523.074 231.159 522.684C230.409 522.293 229.553 522.152 228.717 522.281C227.881 522.41 227.108 522.802 226.51 523.4C225.913 523.999 225.522 524.773 225.394 525.609L206.87 632.658C206.685 633.852 206.072 634.938 205.146 635.714C204.22 636.49 203.043 636.903 201.835 636.876L174.333 636.206C173.666 636.192 173.009 636.043 172.401 635.768C171.793 635.493 171.247 635.097 170.796 634.605C170.32 634.133 169.955 633.561 169.73 632.929C169.504 632.298 169.423 631.624 169.492 630.958C181.948 548.813 191.755 474.457 210.615 451.773C211.138 451.278 211.737 450.87 212.39 450.566L211.818 450.479C211.654 450.453 211.219 450.386 211.213 449.949L211.208 449.525L211.638 449.444C212.325 449.42 213.01 449.523 213.66 449.748L256.704 456.373C257.896 456.556 258.981 457.167 259.757 458.091C260.532 459.016 260.945 460.19 260.918 461.397C263.258 472.344 266.844 488.868 267.165 489.682C290.131 533.343 299.042 567.725 308.305 626.434C308.497 627.679 308.21 628.95 307.503 629.993C306.796 631.035 305.721 631.771 304.493 632.053L281.409 637.318C281.041 637.403 280.665 637.445 280.288 637.445Z" fill="#2F2E41"/>
<path d="M256.132 463.531C255.745 463.531 255.361 463.486 254.985 463.396L212.606 453.315C211.957 453.164 211.345 452.881 210.809 452.483C210.274 452.086 209.825 451.584 209.491 451.006C209.146 450.409 208.925 449.749 208.842 449.064C208.759 448.38 208.815 447.685 209.007 447.023C213.577 431.18 207.584 411.54 200.428 392.677C199.518 387.161 200.409 381.498 202.971 376.529C205.532 371.559 209.627 367.548 214.647 365.088L214.763 365.033L237.012 366.156C240.665 367.114 244.054 368.887 246.924 371.343C249.793 373.799 252.069 376.874 253.579 380.335C262.155 400.406 264.61 426.161 261.085 459.07C260.955 460.294 260.378 461.427 259.463 462.25C258.549 463.074 257.362 463.53 256.132 463.531Z" fill="#890AFF"/>
<path d="M261.833 417.717C259.571 417.722 257.364 417.02 255.52 415.71L239.105 404.011L250.816 388.679L261.388 394.765L303.87 370.258C303.912 369.769 303.989 369.284 304.099 368.806C304.597 366.688 305.711 364.765 307.302 363.281C308.892 361.797 310.887 360.817 313.035 360.467C315.182 360.116 317.385 360.411 319.365 361.312C321.345 362.214 323.013 363.682 324.158 365.531C325.304 367.381 325.875 369.529 325.8 371.703C325.725 373.877 325.007 375.981 323.736 377.747C322.466 379.513 320.7 380.863 318.663 381.625C316.625 382.388 314.407 382.529 312.29 382.031C311.939 381.947 311.593 381.845 311.253 381.726L268.579 415.392C266.656 416.903 264.279 417.722 261.833 417.717Z" fill="#A0616A"/>
<path d="M233.898 408.785L258.247 392.228L246.804 376.021C245.284 373.869 243.053 372.323 240.504 371.657C237.955 370.991 235.253 371.248 232.875 372.381C230.47 373.528 228.553 375.497 227.472 377.933C226.391 380.368 226.217 383.111 226.981 385.664L233.898 408.785Z" fill="#890AFF"/>
<path d="M222.188 356.723C235.753 356.723 246.749 345.726 246.749 332.162C246.749 318.597 235.753 307.601 222.188 307.601C208.623 307.601 197.627 318.597 197.627 332.162C197.627 345.726 208.623 356.723 222.188 356.723Z" fill="#A0616A"/>
<path d="M224.438 357.29C220.752 357.274 217.908 353.393 218.073 349.711C218.238 346.028 220.712 342.788 223.692 340.618C226.672 338.448 230.167 337.126 233.49 335.53C236.813 333.935 240.107 331.945 242.159 328.882C243.399 326.877 244.139 324.605 244.317 322.255C244.495 319.904 244.106 317.546 243.182 315.378C241.273 311.041 237.995 307.449 233.849 305.153C227.692 301.549 220.402 300.396 213.433 301.925C206.463 303.454 200.326 307.553 196.242 313.404L192.034 324.862C187.746 330.018 187.066 337.675 189.702 343.841C192.338 350.008 197.95 354.647 204.283 356.853C210.708 358.918 217.587 359.124 224.124 357.448" fill="#2F2E41"/>
<path d="M197.9 320.516C196.217 317.922 193.922 315.781 191.217 314.283C188.512 312.785 185.48 311.975 182.388 311.926C179.296 311.876 176.239 312.588 173.487 313.998C170.735 315.409 168.373 317.475 166.608 320.014C163.653 324.264 162.58 329.504 160.549 334.265C156.869 342.791 150.178 349.663 141.752 353.568C149.129 354.865 156.479 351.112 162.377 346.495C168.275 341.877 173.462 336.241 180.067 332.709C185.264 329.94 191.102 328.599 196.985 328.823" fill="#2F2E41"/>
<path d="M404.633 688.5H23.6328C23.3676 688.5 23.1132 688.395 22.9257 688.207C22.7382 688.02 22.6328 687.765 22.6328 687.5C22.6328 687.235 22.7382 686.98 22.9257 686.793C23.1132 686.605 23.3676 686.5 23.6328 686.5H404.633C404.898 686.5 405.152 686.605 405.34 686.793C405.527 686.98 405.633 687.235 405.633 687.5C405.633 687.765 405.527 688.02 405.34 688.207C405.152 688.395 404.898 688.5 404.633 688.5Z" fill="#3F3D56"/>
<path d="M882.739 366.5C915.324 366.5 941.739 340.085 941.739 307.5C941.739 274.915 915.324 248.5 882.739 248.5C850.154 248.5 823.739 274.915 823.739 307.5C823.739 340.085 850.154 366.5 882.739 366.5Z" fill="#E6E6E6"/>
<path d="M888.366 349.552C885.963 349.485 882.972 349.401 880.67 347.719C879.984 347.198 879.42 346.532 879.019 345.77C878.617 345.008 878.387 344.167 878.344 343.306C878.303 342.694 878.403 342.081 878.637 341.515C878.872 340.948 879.234 340.444 879.696 340.041C880.383 339.528 881.186 339.196 882.034 339.074C882.882 338.952 883.747 339.044 884.55 339.342L882.588 325.006L884.028 324.809L886.334 341.662L885.132 341.111C883.737 340.471 881.824 340.146 880.634 341.151C880.342 341.413 880.115 341.74 879.97 342.105C879.824 342.469 879.765 342.863 879.797 343.254C879.832 343.895 880.005 344.521 880.303 345.088C880.602 345.656 881.019 346.153 881.527 346.545C883.319 347.855 885.703 348.024 888.407 348.1L888.366 349.552Z" fill="#3F3D56"/>
<path d="M875.466 326.242H867.638V327.696H875.466V326.242Z" fill="#3F3D56"/>
<path d="M900.176 326.242H892.348V327.696H900.176V326.242Z" fill="#3F3D56"/>
<path d="M854.037 306.171C847.733 305.452 842.85 299.412 842.314 293.283C841.676 285.992 845.922 279.068 851.747 274.976C857.839 270.698 865.429 268.911 872.773 268.518C887.098 267.805 901.177 272.445 912.271 281.537C917.773 286.107 922.912 291.928 924.86 298.96C926.552 305.067 925.175 311.985 920.264 316.262C919.049 317.311 917.63 318.095 916.096 318.568C914.563 319.04 912.948 319.189 911.354 319.006C907.543 318.61 904.026 316.606 900.983 314.393C895.062 310.088 890.201 304.091 882.988 301.841C877.698 300.192 870.835 301.644 867.602 306.427C866.869 307.522 866.394 308.769 866.213 310.074C866.146 310.353 866.187 310.646 866.329 310.895C866.47 311.144 866.701 311.33 866.974 311.415C867.253 311.49 867.55 311.453 867.801 311.31C868.052 311.167 868.237 310.932 868.315 310.654C869.163 304.63 876.571 302.382 881.769 303.757C889.348 305.763 894.436 312.526 900.654 316.823C903.873 319.223 907.665 320.737 911.652 321.213C915.109 321.484 918.539 320.43 921.247 318.265C926.56 314.07 928.591 306.856 927.417 300.36C926.056 292.837 920.993 286.39 915.438 281.399C904.176 271.387 889.556 265.986 874.49 266.272C866.805 266.449 858.787 268.035 852.167 272.096C845.746 276.036 840.782 282.627 840.134 290.289C839.563 297.032 843.181 304.086 849.391 307.04C850.856 307.734 852.426 308.177 854.037 308.351C855.429 308.51 855.417 306.328 854.037 306.171Z" fill="#3F3D56"/>
</g>
<defs>
<clipPath id="clip0_6120_57">
<rect width="941.739" height="688" fill="white" transform="translate(0 0.5)"/>
</clipPath>
</defs>
</svg>
