<svg width="943" height="632" viewBox="0 0 943 632" fill="none" xmlns="http://www.w3.org/2000/svg">
<g clip-path="url(#clip0_6120_2)">
<path d="M750.864 279.94L753.662 257.513C754.656 249.543 758.776 242.294 765.115 237.361C771.454 232.429 779.492 230.216 787.462 231.211C795.433 232.205 802.681 236.325 807.614 242.664C812.547 249.003 814.759 257.041 813.765 265.011L810.967 287.438C810.832 288.508 810.279 289.481 809.427 290.143C808.576 290.806 807.497 291.103 806.427 290.971L754.397 284.48C753.327 284.345 752.354 283.792 751.691 282.94C751.029 282.089 750.731 281.01 750.864 279.94Z" fill="#2F2E41"/>
<path d="M775.787 286.63C788.049 286.63 797.99 276.689 797.99 264.427C797.99 252.164 788.049 242.223 775.787 242.223C763.524 242.223 753.583 252.164 753.583 264.427C753.583 276.689 763.524 286.63 775.787 286.63Z" fill="#FFB8B8"/>
<path d="M746.328 258.42C747.122 252.119 750.383 246.389 755.395 242.488C760.408 238.588 766.763 236.835 773.066 237.614L777.552 238.173C783.854 238.967 789.583 242.228 793.484 247.24C797.384 252.253 799.137 258.608 798.358 264.911L798.302 265.36L788.823 264.177L786.719 254.721L784.944 263.693L780.045 263.082L778.983 258.311L778.087 262.838L746.272 258.869L746.328 258.42Z" fill="#2F2E41"/>
<path d="M667.19 343.631C667.868 344.963 668.831 346.131 670.009 347.051C671.188 347.971 672.554 348.621 674.011 348.956C675.468 349.292 676.981 349.303 678.444 348.99C679.906 348.677 681.281 348.048 682.474 347.146L702.641 358.959L712.809 348.455L684.095 332.172C682.447 330.269 680.158 329.037 677.662 328.709C675.166 328.381 672.636 328.98 670.553 330.392C668.469 331.805 666.975 333.933 666.356 336.373C665.736 338.813 666.033 341.395 667.19 343.631Z" fill="#FFB8B8"/>
<path d="M733.286 364.859C718.411 364.859 692.234 358.2 690.785 357.828L690.327 357.71L694.447 336.852L734.429 344.749L756.149 314.162L781.087 311.626L780.391 312.542C780.066 312.969 747.921 355.286 742.918 362.384C741.656 364.175 738.05 364.859 733.286 364.859Z" fill="#3F3D56"/>
<path d="M737.274 443.147L736.679 442.863C736.552 442.802 723.914 436.655 717.368 424.654C710.853 412.709 741.351 362.042 743.484 358.526L743.515 342.435L754.487 312.814L768.478 304.906L756.465 332.936L737.274 443.147Z" fill="#3F3D56"/>
<path d="M723.257 616.091L709.885 616.09L703.523 564.511L723.259 564.512L723.257 616.091Z" fill="#FFB8B8"/>
<path d="M726.667 629.053L683.549 629.051V628.506C683.55 624.055 685.318 619.787 688.465 616.639C691.613 613.492 695.881 611.724 700.332 611.724H700.333L726.668 611.725L726.667 629.053Z" fill="#2F2E41"/>
<path d="M866.891 604.372L854.184 608.535L832.077 561.502L850.832 555.357L866.891 604.372Z" fill="#FFB8B8"/>
<path d="M874.168 615.628L833.194 629.053L833.024 628.535C831.638 624.305 831.989 619.698 834 615.727C836.011 611.757 839.517 608.747 843.746 607.361L843.747 607.361L868.773 599.161L874.168 615.628Z" fill="#2F2E41"/>
<path d="M841 595.939L802.88 532.298L770.699 464.305L741.741 524.366L730.237 602.154L689.894 602.714L690.053 602.084L751.791 356.773L800.143 363.997L797.942 395.913L799.253 397.777C810.175 413.293 821.469 429.336 814.991 446.63L833.354 501.153L874 591.939L841 595.939Z" fill="#2F2E41"/>
<path d="M754 409.939C746.994 409.939 739 401.939 743.147 388.281L742.879 388.086L752.839 344.079C744.147 331.647 755.607 321.387 756.681 320.471L762.152 310.624L786.29 295.315L798.503 396.79L798.322 396.962C789.501 405.402 759.877 409.939 754 409.939Z" fill="#890AFF"/>
<path d="M803.433 432.837C802.474 432.852 801.517 432.75 800.582 432.535C799.643 432.3 798.123 431.104 795.775 423.458C786.439 393.06 775.416 301.598 783.424 292.647L783.608 292.442L796.756 294.634C797.849 293.827 803.585 289.823 808.878 290.519C809.967 290.656 811.017 291.016 811.963 291.574C812.908 292.133 813.729 292.88 814.374 293.768L814.465 293.887L818.654 353.481L834 423.612L833.632 423.779C832.739 424.185 813.577 432.837 803.433 432.837Z" fill="#3F3D56"/>
<path d="M794.59 409.544C796.085 409.494 797.55 409.117 798.883 408.44C800.216 407.762 801.384 406.801 802.305 405.623C803.226 404.445 803.878 403.08 804.215 401.623C804.551 400.166 804.564 398.653 804.253 397.191L823.501 383.933L818.297 370.271L791.378 389.375C788.956 390.061 786.869 391.612 785.514 393.734C784.159 395.855 783.63 398.4 784.025 400.886C784.421 403.372 785.716 405.627 787.663 407.223C789.61 408.818 792.075 409.644 794.59 409.544Z" fill="#FFB8B8"/>
<path d="M817.15 394.556L800.004 381.983L824.105 349.119L805.61 316.48L813.885 292.819L814.419 293.838C814.668 294.313 839.367 341.365 843.676 348.906C848.159 356.749 818.706 392.666 817.45 394.191L817.15 394.556Z" fill="#3F3D56"/>
<path d="M431.48 542.474L416.887 536.33L406.877 463.179H273.573L262.722 536.031L249.667 542.559C249.042 542.871 248.542 543.385 248.246 544.018C247.95 544.65 247.876 545.364 248.036 546.044C248.197 546.724 248.582 547.329 249.13 547.763C249.677 548.196 250.355 548.432 251.054 548.432H430.277C430.993 548.432 431.686 548.184 432.24 547.731C432.794 547.278 433.174 546.647 433.316 545.945C433.458 545.244 433.352 544.515 433.017 543.882C432.683 543.249 432.139 542.752 431.48 542.474Z" fill="#E6E6E6"/>
<path d="M668.371 472.911H13.542C10.1063 472.904 6.81391 471.533 4.38722 469.101C1.96053 466.669 0.597679 463.374 0.597656 459.938V367.599H681.315V459.938C681.315 463.374 679.953 466.669 677.526 469.101C675.099 471.533 671.807 472.904 668.371 472.911Z" fill="#CCCCCC"/>
<path d="M682 411.24H0V16.1391C0.00479067 11.9927 1.65408 8.01755 4.58606 5.08568C7.51803 2.1538 11.4933 0.50465 15.6396 0.5H666.36C670.507 0.504639 674.482 2.15379 677.414 5.08566C680.346 8.01753 681.995 11.9927 682 16.1391V411.24Z" fill="#3F3D56"/>
<path d="M641.267 382.564H40.7333C37.5367 382.56 34.472 381.289 32.2117 379.029C29.9513 376.768 28.6799 373.704 28.6763 370.507V41.2332C28.6798 38.0365 29.9513 34.9718 32.2116 32.7114C34.4719 30.451 37.5366 29.1795 40.7333 29.1758H641.267C644.464 29.1795 647.528 30.451 649.789 32.7114C652.049 34.9718 653.32 38.0365 653.324 41.2332V370.507C653.32 373.704 652.049 376.768 649.789 379.029C647.528 381.289 644.464 382.56 641.267 382.564Z" fill="white"/>
<path d="M509.42 549.195H171.972C171.626 549.202 171.288 549.095 171.009 548.89C170.731 548.685 170.528 548.394 170.433 548.062C170.373 547.835 170.366 547.599 170.412 547.369C170.459 547.14 170.557 546.924 170.7 546.739C170.842 546.554 171.026 546.403 171.235 546.3C171.445 546.197 171.676 546.143 171.91 546.143H509.295C509.659 546.13 510.018 546.241 510.311 546.458C510.605 546.674 510.816 546.984 510.911 547.336C510.961 547.56 510.959 547.791 510.907 548.014C510.855 548.237 510.754 548.445 510.611 548.623C510.468 548.802 510.287 548.946 510.081 549.045C509.874 549.144 509.649 549.195 509.42 549.195Z" fill="#CCCCCC"/>
<path d="M634.856 82.4094H489.86V193.183H634.856V82.4094Z" fill="#F2F2F2"/>
<path d="M627.651 87.9136H497.064V187.678H627.651V87.9136Z" fill="white"/>
<path d="M564.651 161.914C564.668 161.915 564.686 161.914 564.703 161.913C573.543 161.451 581.874 157.639 588.003 151.253C594.133 144.866 597.6 136.385 597.699 127.534C597.798 118.683 594.522 110.127 588.538 103.605C582.553 97.0825 574.309 93.0848 565.482 92.4243C565.373 92.4157 565.263 92.4298 565.16 92.4657C565.056 92.5015 564.961 92.5584 564.881 92.6327C564.801 92.7057 564.736 92.7945 564.692 92.8936C564.648 92.9926 564.625 93.0997 564.624 93.2082L563.863 161.11C563.861 161.321 563.943 161.525 564.091 161.675C564.238 161.826 564.44 161.912 564.651 161.914Z" fill="#3F3D56"/>
<path d="M537.346 103.652C537.617 103.656 537.876 103.766 538.065 103.96L561.441 127.866C561.535 127.961 561.609 128.075 561.659 128.199C561.709 128.324 561.734 128.457 561.732 128.591L561.368 161.082C561.367 161.222 561.337 161.359 561.28 161.487C561.223 161.614 561.141 161.728 561.038 161.822C560.934 161.917 560.813 161.99 560.68 162.036C560.547 162.082 560.407 162.1 560.267 162.09C553.767 161.603 547.532 159.314 542.262 155.479C536.992 151.644 532.896 146.416 530.434 140.381C527.972 134.346 527.242 127.745 528.325 121.318C529.408 114.891 532.263 108.893 536.567 103.999C536.66 103.894 536.774 103.809 536.901 103.749C537.029 103.689 537.167 103.657 537.308 103.653C537.321 103.652 537.333 103.652 537.346 103.652Z" fill="#E6E6E6"/>
<path d="M561.115 92.1468C561.376 92.1499 561.626 92.2521 561.815 92.4326C561.916 92.5289 561.996 92.645 562.05 92.7737C562.104 92.9024 562.131 93.0409 562.129 93.1805L561.8 122.496C561.798 122.698 561.736 122.895 561.622 123.061C561.508 123.228 561.347 123.357 561.16 123.432C560.972 123.507 560.767 123.525 560.569 123.484C560.372 123.442 560.191 123.343 560.05 123.198L539.651 102.338C539.555 102.238 539.479 102.121 539.429 101.991C539.379 101.862 539.356 101.724 539.361 101.585C539.366 101.446 539.399 101.31 539.459 101.185C539.518 101.06 539.602 100.948 539.706 100.856C545.639 95.6341 553.16 92.566 561.052 92.148C561.073 92.147 561.094 92.1466 561.115 92.1468Z" fill="#890AFF"/>
<path d="M550.607 175.995C550.593 177.232 550.213 178.436 549.514 179.457C548.816 180.478 547.83 181.268 546.682 181.729C545.534 182.189 544.276 182.299 543.065 182.044C541.855 181.789 540.748 181.181 539.883 180.297C539.018 179.413 538.435 178.292 538.207 177.076C537.98 175.86 538.118 174.604 538.604 173.467C539.09 172.33 539.902 171.362 540.938 170.687C541.974 170.011 543.187 169.658 544.424 169.672C546.082 169.692 547.664 170.369 548.823 171.555C549.982 172.74 550.624 174.337 550.607 175.995Z" fill="#890AFF"/>
<path d="M568.473 176.195C568.459 177.432 568.079 178.637 567.38 179.657C566.682 180.678 565.696 181.468 564.548 181.929C563.4 182.389 562.142 182.499 560.931 182.244C559.721 181.989 558.614 181.381 557.749 180.497C556.884 179.613 556.301 178.492 556.073 177.276C555.846 176.061 555.984 174.805 556.47 173.667C556.956 172.53 557.768 171.562 558.804 170.887C559.84 170.211 561.053 169.858 562.29 169.872C563.948 169.892 565.53 170.57 566.689 171.755C567.848 172.94 568.49 174.537 568.473 176.195Z" fill="#3F3D56"/>
<path d="M586.339 176.395C586.325 177.632 585.945 178.837 585.246 179.857C584.547 180.878 583.562 181.669 582.414 182.129C581.266 182.59 580.007 182.699 578.797 182.444C577.587 182.19 576.479 181.582 575.615 180.697C574.75 179.813 574.167 178.692 573.939 177.476C573.711 176.261 573.849 175.005 574.335 173.867C574.822 172.73 575.634 171.763 576.67 171.087C577.706 170.411 578.919 170.058 580.156 170.072C581.814 170.093 583.396 170.77 584.555 171.955C585.714 173.141 586.355 174.737 586.339 176.395Z" fill="#E6E6E6"/>
<path d="M633.329 210.616H488.333V321.39H633.329V210.616Z" fill="#F2F2F2"/>
<path d="M626.125 216.121H495.538V315.885H626.125V216.121Z" fill="white"/>
<path d="M517.695 248.91C520.689 248.91 523.117 246.482 523.117 243.488C523.117 240.493 520.689 238.066 517.695 238.066C514.7 238.066 512.273 240.493 512.273 243.488C512.273 246.482 514.7 248.91 517.695 248.91Z" fill="#3F3D56"/>
<path d="M604.812 239.269C605.296 239.268 605.775 239.362 606.222 239.547C606.668 239.731 607.074 240.002 607.417 240.344C607.759 240.685 608.03 241.091 608.215 241.537C608.4 241.984 608.496 242.462 608.496 242.946C608.496 243.429 608.4 243.908 608.215 244.354C608.03 244.801 607.759 245.207 607.417 245.548C607.074 245.89 606.668 246.16 606.222 246.345C605.775 246.529 605.296 246.624 604.812 246.623H547.787C546.812 246.623 545.876 246.236 545.187 245.546C544.497 244.856 544.11 243.921 544.11 242.946C544.11 241.971 544.497 241.035 545.187 240.346C545.876 239.656 546.812 239.269 547.787 239.269H604.812ZM604.812 238.368H547.787C547.185 238.367 546.589 238.485 546.033 238.715C545.477 238.944 544.971 239.281 544.546 239.707C544.12 240.132 543.782 240.637 543.552 241.193C543.321 241.748 543.202 242.344 543.202 242.946C543.202 243.548 543.321 244.143 543.552 244.699C543.782 245.255 544.12 245.76 544.546 246.185C544.971 246.61 545.477 246.947 546.033 247.177C546.589 247.407 547.185 247.524 547.787 247.524H604.812C605.414 247.524 606.01 247.407 606.566 247.177C607.123 246.947 607.628 246.61 608.054 246.185C608.48 245.76 608.817 245.255 609.048 244.699C609.278 244.143 609.397 243.548 609.397 242.946C609.397 242.344 609.278 241.748 609.048 241.193C608.817 240.637 608.48 240.132 608.054 239.707C607.628 239.281 607.123 238.944 606.566 238.715C606.01 238.485 605.414 238.367 604.812 238.368Z" fill="#3F3D56"/>
<path d="M582.311 247.524H539.383C538.169 247.524 537.004 247.041 536.146 246.183C535.288 245.324 534.805 244.16 534.805 242.946C534.805 241.732 535.288 240.567 536.146 239.709C537.004 238.85 538.169 238.368 539.383 238.368H582.311C583.525 238.368 584.69 238.85 585.548 239.709C586.407 240.567 586.889 241.732 586.889 242.946C586.889 244.16 586.407 245.324 585.548 246.183C584.69 247.041 583.525 247.524 582.311 247.524Z" fill="#890AFF"/>
<path d="M517.695 271.425C520.689 271.425 523.117 268.998 523.117 266.003C523.117 263.009 520.689 260.581 517.695 260.581C514.7 260.581 512.273 263.009 512.273 266.003C512.273 268.998 514.7 271.425 517.695 271.425Z" fill="#3F3D56"/>
<path d="M604.812 261.784C605.296 261.783 605.775 261.878 606.221 262.062C606.668 262.247 607.074 262.517 607.416 262.859C607.758 263.2 608.03 263.606 608.215 264.052C608.4 264.499 608.495 264.978 608.495 265.461C608.495 265.944 608.4 266.423 608.215 266.87C608.03 267.316 607.758 267.722 607.416 268.063C607.074 268.405 606.668 268.676 606.221 268.86C605.775 269.044 605.296 269.139 604.812 269.138H547.787C546.812 269.138 545.876 268.751 545.187 268.061C544.497 267.372 544.11 266.436 544.11 265.461C544.11 264.486 544.497 263.55 545.187 262.861C545.876 262.171 546.812 261.784 547.787 261.784H604.812ZM604.812 260.883H547.787C546.573 260.883 545.408 261.366 544.55 262.224C543.691 263.083 543.209 264.247 543.209 265.461C543.209 266.675 543.691 267.839 544.55 268.698C545.408 269.556 546.573 270.039 547.787 270.039H604.812C606.026 270.039 607.191 269.556 608.049 268.698C608.908 267.839 609.39 266.675 609.39 265.461C609.39 264.247 608.908 263.083 608.049 262.224C607.191 261.366 606.026 260.883 604.812 260.883Z" fill="#3F3D56"/>
<path d="M598.522 270.039H539.383C538.169 270.039 537.004 269.556 536.146 268.698C535.287 267.839 534.805 266.675 534.805 265.461C534.805 264.247 535.287 263.083 536.146 262.224C537.004 261.366 538.169 260.883 539.383 260.883H598.522C599.736 260.883 600.9 261.366 601.759 262.224C602.617 263.083 603.1 264.247 603.1 265.461C603.1 266.675 602.617 267.839 601.759 268.698C600.9 269.556 599.736 270.039 598.522 270.039Z" fill="#890AFF"/>
<path d="M517.695 293.94C520.689 293.94 523.117 291.512 523.117 288.518C523.117 285.523 520.689 283.096 517.695 283.096C514.7 283.096 512.273 285.523 512.273 288.518C512.273 291.512 514.7 293.94 517.695 293.94Z" fill="#3F3D56"/>
<path d="M604.812 284.299C605.296 284.298 605.775 284.392 606.221 284.577C606.668 284.761 607.074 285.032 607.416 285.373C607.758 285.715 608.03 286.121 608.215 286.567C608.4 287.014 608.495 287.492 608.495 287.976C608.495 288.459 608.4 288.938 608.215 289.384C608.03 289.831 607.758 290.236 607.416 290.578C607.074 290.919 606.668 291.19 606.221 291.375C605.775 291.559 605.296 291.654 604.812 291.653H547.787C546.812 291.653 545.876 291.265 545.187 290.576C544.497 289.886 544.11 288.951 544.11 287.976C544.11 287 544.497 286.065 545.187 285.376C545.876 284.686 546.812 284.299 547.787 284.299H604.812ZM604.812 283.398H547.787C546.573 283.398 545.408 283.88 544.55 284.739C543.691 285.597 543.209 286.762 543.209 287.976C543.209 289.19 543.691 290.354 544.55 291.213C545.408 292.071 546.573 292.553 547.787 292.553H604.812C606.026 292.553 607.191 292.071 608.049 291.213C608.908 290.354 609.39 289.19 609.39 287.976C609.39 286.762 608.908 285.597 608.049 284.739C607.191 283.88 606.026 283.398 604.812 283.398Z" fill="#3F3D56"/>
<path d="M563.399 292.553H539.383C538.781 292.554 538.185 292.437 537.629 292.207C537.073 291.977 536.567 291.64 536.141 291.215C535.716 290.79 535.378 290.285 535.147 289.729C534.917 289.173 534.798 288.577 534.798 287.976C534.798 287.374 534.917 286.778 535.147 286.222C535.378 285.666 535.716 285.162 536.141 284.736C536.567 284.311 537.073 283.974 537.629 283.744C538.185 283.515 538.781 283.397 539.383 283.398H563.399C564.611 283.4 565.774 283.883 566.631 284.741C567.488 285.599 567.97 286.763 567.97 287.976C567.97 289.189 567.488 290.352 566.631 291.21C565.774 292.069 564.611 292.552 563.399 292.553Z" fill="#890AFF"/>
<path d="M456.282 102.008H51.1885V309.618H456.282V102.008Z" fill="#F2F2F2"/>
<path d="M442.779 112.324H64.6914V299.302H442.779V112.324Z" fill="white"/>
<path d="M395.888 270.777H120.27C120.041 270.777 119.821 270.686 119.66 270.524C119.498 270.362 119.407 270.143 119.407 269.914V137.81C119.407 137.582 119.498 137.362 119.66 137.2C119.821 137.039 120.041 136.948 120.27 136.948C120.498 136.948 120.718 137.039 120.879 137.2C121.041 137.362 121.132 137.582 121.132 137.81V269.052H395.888C396.117 269.052 396.336 269.142 396.498 269.304C396.66 269.466 396.75 269.685 396.75 269.914C396.75 270.143 396.66 270.362 396.498 270.524C396.336 270.686 396.117 270.777 395.888 270.777Z" fill="#3F3D56"/>
<path d="M179.157 261.289H154.089C153.41 261.288 152.759 261.018 152.279 260.538C151.799 260.058 151.529 259.407 151.528 258.728V224.171C151.529 223.492 151.799 222.842 152.279 222.362C152.759 221.882 153.41 221.612 154.089 221.611H179.157C179.836 221.612 180.487 221.882 180.967 222.362C181.447 222.842 181.717 223.492 181.718 224.171V258.728C181.717 259.407 181.447 260.058 180.967 260.538C180.487 261.018 179.836 261.288 179.157 261.289Z" fill="#890AFF"/>
<path d="M224.873 261.288H199.804C199.126 261.288 198.475 261.018 197.995 260.538C197.515 260.058 197.245 259.407 197.244 258.728V191.394C197.245 190.715 197.515 190.064 197.995 189.584C198.475 189.104 199.126 188.834 199.804 188.833H224.873C225.552 188.834 226.203 189.104 226.683 189.584C227.163 190.064 227.433 190.715 227.433 191.394V258.728C227.433 259.407 227.163 260.058 226.683 260.538C226.203 261.018 225.552 261.288 224.873 261.288Z" fill="#890AFF"/>
<path d="M270.589 261.289H245.52C244.841 261.288 244.19 261.018 243.71 260.538C243.23 260.058 242.96 259.407 242.959 258.728V224.171C242.96 223.492 243.23 222.842 243.71 222.362C244.19 221.882 244.841 221.612 245.52 221.611H270.589C271.267 221.612 271.918 221.882 272.398 222.362C272.878 222.842 273.148 223.492 273.149 224.171V258.728C273.148 259.407 272.878 260.058 272.398 260.538C271.918 261.018 271.267 261.288 270.589 261.289Z" fill="#890AFF"/>
<path d="M316.304 261.289H291.236C290.572 261.303 289.93 261.054 289.45 260.595C288.97 260.137 288.692 259.508 288.675 258.844V178.339C288.692 177.676 288.97 177.046 289.45 176.588C289.93 176.13 290.572 175.881 291.236 175.895H316.304C316.967 175.881 317.609 176.13 318.089 176.588C318.569 177.046 318.848 177.676 318.865 178.339V258.844C318.848 259.507 318.569 260.137 318.089 260.595C317.609 261.054 316.967 261.303 316.304 261.289Z" fill="#890AFF"/>
<path d="M362.02 261.288H336.951C336.272 261.288 335.622 261.018 335.142 260.538C334.661 260.058 334.391 259.407 334.391 258.728V155.166C334.391 154.487 334.661 153.837 335.142 153.357C335.622 152.877 336.272 152.607 336.951 152.606H362.02C362.699 152.607 363.349 152.877 363.829 153.357C364.309 153.837 364.579 154.487 364.58 155.166V258.728C364.579 259.407 364.309 260.058 363.829 260.538C363.349 261.018 362.699 261.288 362.02 261.288Z" fill="#890AFF"/>
<path d="M166.623 211.26C169.481 211.26 171.798 208.943 171.798 206.085C171.798 203.227 169.481 200.91 166.623 200.91C163.765 200.91 161.448 203.227 161.448 206.085C161.448 208.943 163.765 211.26 166.623 211.26Z" fill="#3F3D56"/>
<path d="M212.339 177.62C215.197 177.62 217.514 175.303 217.514 172.445C217.514 169.587 215.197 167.27 212.339 167.27C209.48 167.27 207.163 169.587 207.163 172.445C207.163 175.303 209.48 177.62 212.339 177.62Z" fill="#3F3D56"/>
<path d="M258.054 211.26C260.913 211.26 263.23 208.943 263.23 206.085C263.23 203.227 260.913 200.91 258.054 200.91C255.196 200.91 252.879 203.227 252.879 206.085C252.879 208.943 255.196 211.26 258.054 211.26Z" fill="#3F3D56"/>
<path d="M303.77 161.232C306.628 161.232 308.945 158.914 308.945 156.056C308.945 153.198 306.628 150.881 303.77 150.881C300.912 150.881 298.594 153.198 298.594 156.056C298.594 158.914 300.912 161.232 303.77 161.232Z" fill="#3F3D56"/>
<path d="M349.485 142.256C352.344 142.256 354.661 139.938 354.661 137.08C354.661 134.222 352.344 131.905 349.485 131.905C346.627 131.905 344.31 134.222 344.31 137.08C344.31 139.938 346.627 142.256 349.485 142.256Z" fill="#3F3D56"/>
<path d="M258.163 207.244L212.339 172.921L167.14 206.775L166.106 205.395L212.339 170.765L257.945 204.925L303.266 155.33L303.447 155.256L349.163 136.837L349.808 138.437L304.274 156.783L258.163 207.244Z" fill="#3F3D56"/>
<path d="M941.547 631.939H560.547C560.282 631.939 560.028 631.834 559.84 631.646C559.653 631.459 559.547 631.204 559.547 630.939C559.547 630.674 559.653 630.419 559.84 630.232C560.028 630.044 560.282 629.939 560.547 629.939H941.547C941.813 629.939 942.067 630.044 942.254 630.232C942.442 630.419 942.547 630.674 942.547 630.939C942.547 631.204 942.442 631.459 942.254 631.646C942.067 631.834 941.813 631.939 941.547 631.939Z" fill="#CCCCCC"/>
</g>
<defs>
<clipPath id="clip0_6120_2">
<rect width="942.547" height="631.439" fill="white" transform="translate(0 0.5)"/>
</clipPath>
</defs>
</svg>
