<svg width="851" height="742" viewBox="0 0 851 742" fill="none" xmlns="http://www.w3.org/2000/svg">
<g clip-path="url(#clip0_6120_166)">
<path d="M766.878 386.04C766.989 477.709 731.556 565.852 668.028 631.94C664.198 635.95 660.265 639.863 656.228 643.68C650.078 649.53 643.721 655.153 637.158 660.55C575.76 711.134 499.112 739.559 419.578 741.24C416.928 741.3 414.268 741.33 411.598 741.33C348.168 741.33 268.388 707.45 195.988 660.55C189.998 656.67 184.061 652.7 178.178 648.64C175.428 646.76 172.691 644.853 169.968 642.92C142.044 623.202 115.539 601.549 90.648 578.12C74.3509 562.825 59.0684 546.483 44.898 529.2C-10.732 460.58 -23.002 398.75 56.308 386.04C65.698 384.54 74.8113 382.936 83.648 381.23C96.4481 378.77 108.698 376.113 120.398 373.26C136.158 369.43 150.965 365.276 164.818 360.8C169.478 359.3 174.031 357.77 178.478 356.21C244.218 333.12 288.218 303.01 318.168 270.34C323.248 264.81 327.931 259.213 332.218 253.55C338.777 244.929 344.734 235.868 350.048 226.43C357.383 213.316 363.543 199.579 368.458 185.38L368.728 184.6C392.558 115.86 385.308 52.0996 411.598 30.7596C523.978 -60.4704 663.888 69.4496 729.558 222.66C732.868 230.38 735.981 238.146 738.898 245.96C740.208 249.45 741.471 252.946 742.688 256.45C745.888 265.58 748.791 274.733 751.398 283.91C752.398 287.41 753.351 290.906 754.258 294.4C755.228 298.17 756.158 301.93 757.018 305.69C763.408 333.22 766.878 360.37 766.878 386.04Z" fill="#F2F2F2"/>
<path d="M419.578 741.24C416.928 741.3 414.268 741.33 411.598 741.33C348.168 741.33 268.388 707.45 195.988 660.55C189.998 656.67 184.061 652.7 178.178 648.64L183.338 617.24L339.548 596.5L417.948 656.45L419.578 741.24Z" fill="#2F2E41"/>
<path d="M427.098 180.55H404.838C404.148 180.55 403.487 180.824 403 181.311C402.512 181.799 402.238 182.46 402.238 183.149V205.419C402.238 205.76 402.306 206.098 402.437 206.412C402.568 206.727 402.759 207.013 403.001 207.254C403.242 207.494 403.529 207.685 403.844 207.814C404.159 207.944 404.497 208.01 404.838 208.009H427.098C427.786 208.01 428.446 207.737 428.933 207.252C429.421 206.766 429.696 206.107 429.698 205.419V183.149C429.696 182.46 429.421 181.8 428.934 181.313C428.447 180.826 427.787 180.552 427.098 180.55Z" fill="white"/>
<path d="M427.098 218.5H404.838C404.148 218.5 403.487 218.774 403 219.261C402.512 219.749 402.238 220.41 402.238 221.1V243.37C402.238 243.71 402.306 244.048 402.437 244.363C402.568 244.677 402.759 244.963 403.001 245.204C403.242 245.444 403.529 245.635 403.844 245.765C404.159 245.894 404.497 245.96 404.838 245.96H427.098C427.786 245.96 428.446 245.687 428.933 245.202C429.421 244.716 429.696 244.057 429.698 243.37V221.1C429.696 220.411 429.421 219.75 428.934 219.263C428.447 218.776 427.787 218.501 427.098 218.5Z" fill="#E6E6E6"/>
<path d="M427.098 256.45H404.838C404.148 256.45 403.487 256.724 403 257.212C402.512 257.699 402.238 258.36 402.238 259.05V281.31C402.237 281.651 402.304 281.99 402.435 282.306C402.565 282.621 402.756 282.908 402.998 283.15C403.24 283.391 403.526 283.583 403.842 283.713C404.158 283.844 404.496 283.91 404.838 283.91H427.098C427.787 283.909 428.448 283.635 428.936 283.148C429.424 282.66 429.698 281.999 429.698 281.31V259.05C429.696 258.361 429.421 257.701 428.934 257.213C428.447 256.726 427.787 256.452 427.098 256.45Z" fill="#E6E6E6"/>
<path d="M429.658 296.54C429.547 295.941 429.23 295.399 428.763 295.009C428.296 294.618 427.707 294.402 427.098 294.399H404.838C404.148 294.4 403.487 294.674 403 295.161C402.512 295.649 402.238 296.31 402.238 297V319.26C402.237 319.601 402.304 319.94 402.435 320.255C402.565 320.571 402.756 320.858 402.998 321.099C403.239 321.341 403.526 321.533 403.842 321.663C404.158 321.793 404.496 321.86 404.838 321.86H427.098C427.787 321.859 428.448 321.585 428.936 321.098C429.424 320.61 429.698 319.949 429.698 319.26V297C429.7 296.845 429.687 296.691 429.658 296.54Z" fill="#E6E6E6"/>
<path d="M428.108 332.55C427.788 332.417 427.445 332.349 427.098 332.35H404.838C404.496 332.349 404.158 332.416 403.842 332.546C403.527 332.677 403.24 332.868 402.998 333.11C402.757 333.351 402.565 333.638 402.435 333.954C402.304 334.27 402.238 334.608 402.238 334.95V357.21C402.237 357.551 402.303 357.89 402.433 358.206C402.563 358.523 402.755 358.81 402.996 359.052C403.238 359.293 403.525 359.485 403.841 359.615C404.157 359.745 404.496 359.811 404.838 359.81H427.098C427.788 359.809 428.449 359.535 428.936 359.048C429.424 358.56 429.698 357.899 429.698 357.21V334.95C429.697 334.438 429.546 333.938 429.263 333.511C428.98 333.085 428.579 332.75 428.108 332.55Z" fill="#E6E6E6"/>
<path d="M473.858 180.55H451.598C450.908 180.55 450.247 180.824 449.76 181.311C449.272 181.799 448.998 182.46 448.998 183.149V205.419C448.998 205.76 449.066 206.098 449.197 206.412C449.328 206.727 449.519 207.013 449.761 207.254C450.002 207.494 450.289 207.685 450.604 207.814C450.919 207.944 451.257 208.01 451.598 208.009H473.858C474.546 208.01 475.206 207.737 475.693 207.252C476.181 206.766 476.456 206.107 476.458 205.419V183.149C476.456 182.46 476.181 181.8 475.694 181.313C475.207 180.826 474.547 180.552 473.858 180.55Z" fill="#E6E6E6"/>
<path d="M473.858 218.5H451.598C450.908 218.5 450.247 218.774 449.76 219.261C449.272 219.749 448.998 220.41 448.998 221.1V243.37C448.998 243.71 449.066 244.048 449.197 244.363C449.328 244.677 449.519 244.963 449.761 245.204C450.002 245.444 450.289 245.635 450.604 245.765C450.919 245.894 451.257 245.96 451.598 245.96H473.858C474.546 245.96 475.206 245.687 475.693 245.202C476.181 244.716 476.456 244.057 476.458 243.37V221.1C476.456 220.411 476.181 219.75 475.694 219.263C475.207 218.776 474.547 218.501 473.858 218.5Z" fill="#890AFF"/>
<path d="M473.858 256.45H451.598C450.908 256.45 450.247 256.724 449.76 257.212C449.272 257.699 448.998 258.36 448.998 259.05V281.31C448.997 281.651 449.064 281.99 449.195 282.306C449.325 282.621 449.516 282.908 449.758 283.15C450 283.391 450.286 283.583 450.602 283.713C450.918 283.844 451.256 283.91 451.598 283.91H473.858C474.547 283.909 475.209 283.635 475.696 283.148C476.184 282.66 476.458 281.999 476.458 281.31V259.05C476.456 258.361 476.181 257.701 475.694 257.213C475.207 256.726 474.547 256.452 473.858 256.45Z" fill="#890AFF"/>
<path d="M473.858 294.399H451.598C451.053 294.4 450.522 294.572 450.08 294.892C449.638 295.211 449.309 295.662 449.138 296.179C449.045 296.443 448.998 296.72 448.998 296.999V319.259C448.997 319.601 449.064 319.939 449.195 320.255C449.325 320.571 449.516 320.858 449.758 321.099C449.999 321.341 450.286 321.533 450.602 321.663C450.918 321.793 451.256 321.86 451.598 321.859H473.858C474.547 321.859 475.209 321.585 475.696 321.098C476.184 320.61 476.458 319.949 476.458 319.259V296.999C476.456 296.311 476.181 295.65 475.694 295.163C475.207 294.676 474.547 294.401 473.858 294.399Z" fill="#890AFF"/>
<path d="M473.858 332.35H451.598C451.256 332.349 450.918 332.416 450.602 332.546C450.286 332.677 450 332.868 449.758 333.11C449.516 333.351 449.325 333.638 449.195 333.954C449.064 334.27 448.997 334.608 448.998 334.95V357.21C448.997 357.551 449.064 357.89 449.195 358.205C449.325 358.521 449.516 358.808 449.758 359.05C450 359.291 450.286 359.483 450.602 359.613C450.918 359.744 451.256 359.81 451.598 359.81H473.858C474.547 359.809 475.209 359.535 475.696 359.048C476.184 358.56 476.458 357.899 476.458 357.21V334.95C476.458 334.26 476.184 333.599 475.696 333.111C475.209 332.624 474.547 332.35 473.858 332.35Z" fill="#E6E6E6"/>
<path d="M520.618 180.55H498.358C497.669 180.55 497.008 180.824 496.52 181.311C496.033 181.799 495.759 182.46 495.758 183.149V205.419C495.759 205.76 495.826 206.098 495.957 206.412C496.088 206.727 496.28 207.013 496.521 207.254C496.763 207.494 497.049 207.685 497.364 207.814C497.68 207.944 498.017 208.01 498.358 208.009H520.618C521.306 208.01 521.966 207.737 522.453 207.252C522.941 206.766 523.216 206.107 523.218 205.419V183.149C523.216 182.46 522.942 181.8 522.454 181.313C521.967 180.826 521.307 180.552 520.618 180.55Z" fill="#890AFF"/>
<path d="M520.618 218.5H498.358C497.669 218.5 497.008 218.774 496.52 219.261C496.033 219.749 495.759 220.41 495.758 221.1V243.37C495.759 243.71 495.826 244.048 495.957 244.363C496.088 244.677 496.28 244.963 496.521 245.204C496.763 245.444 497.049 245.635 497.364 245.765C497.68 245.894 498.017 245.96 498.358 245.96H520.618C521.306 245.96 521.966 245.687 522.453 245.202C522.941 244.716 523.216 244.057 523.218 243.37V221.1C523.216 220.411 522.942 219.75 522.454 219.263C521.967 218.776 521.307 218.501 520.618 218.5Z" fill="#890AFF"/>
<path d="M520.618 256.45H498.358C497.669 256.45 497.008 256.724 496.52 257.212C496.033 257.699 495.759 258.36 495.758 259.05V281.31C495.758 281.651 495.824 281.99 495.955 282.306C496.085 282.621 496.277 282.908 496.518 283.15C496.76 283.391 497.047 283.583 497.362 283.713C497.678 283.844 498.017 283.91 498.358 283.91H520.618C521.308 283.909 521.969 283.635 522.456 283.148C522.944 282.66 523.218 281.999 523.218 281.31V259.05C523.216 258.361 522.942 257.701 522.454 257.213C521.967 256.726 521.307 256.452 520.618 256.45Z" fill="#E6E6E6"/>
<path d="M520.618 294.399H498.358C497.669 294.4 497.008 294.674 496.52 295.161C496.033 295.649 495.759 296.31 495.758 297V319.26C495.758 319.601 495.824 319.94 495.955 320.255C496.085 320.571 496.277 320.858 496.518 321.099C496.76 321.341 497.047 321.533 497.362 321.663C497.678 321.793 498.017 321.86 498.358 321.86H520.618C521.308 321.859 521.969 321.585 522.456 321.098C522.944 320.61 523.218 319.949 523.218 319.26V297C523.216 296.311 522.942 295.65 522.454 295.163C521.967 294.676 521.307 294.401 520.618 294.399Z" fill="#890AFF"/>
<path d="M520.618 332.35H498.358C498.017 332.349 497.678 332.416 497.362 332.546C497.047 332.677 496.76 332.868 496.518 333.11C496.277 333.351 496.085 333.638 495.955 333.954C495.824 334.27 495.758 334.608 495.758 334.95V357.21C495.758 357.551 495.824 357.89 495.955 358.205C496.085 358.521 496.277 358.808 496.518 359.05C496.76 359.291 497.047 359.483 497.362 359.613C497.678 359.744 498.017 359.81 498.358 359.81H520.618C521.308 359.809 521.969 359.535 522.456 359.048C522.944 358.56 523.218 357.899 523.218 357.21V334.95C523.218 334.26 522.944 333.599 522.456 333.111C521.969 332.624 521.308 332.35 520.618 332.35Z" fill="#890AFF"/>
<path d="M567.378 180.55H545.118C544.429 180.55 543.767 180.824 543.28 181.311C542.792 181.799 542.518 182.46 542.518 183.149V205.419C542.518 205.76 542.586 206.098 542.717 206.412C542.848 206.727 543.039 207.013 543.281 207.254C543.522 207.494 543.809 207.685 544.124 207.814C544.439 207.944 544.777 208.01 545.118 208.009H567.378C568.066 208.01 568.726 207.737 569.213 207.252C569.701 206.766 569.976 206.107 569.978 205.419V183.149C569.976 182.46 569.701 181.8 569.214 181.313C568.727 180.826 568.067 180.552 567.378 180.55Z" fill="#890AFF"/>
<path d="M567.378 218.5H545.118C544.429 218.5 543.767 218.774 543.28 219.261C542.792 219.749 542.518 220.41 542.518 221.1V243.37C542.518 243.71 542.586 244.048 542.717 244.363C542.848 244.677 543.039 244.963 543.281 245.204C543.522 245.444 543.809 245.635 544.124 245.765C544.439 245.894 544.777 245.96 545.118 245.96H567.378C568.066 245.96 568.726 245.687 569.213 245.202C569.701 244.716 569.976 244.057 569.978 243.37V221.1C569.976 220.411 569.702 219.75 569.214 219.263C568.727 218.776 568.067 218.501 567.378 218.5Z" fill="white"/>
<path d="M567.378 256.45H545.118C544.429 256.45 543.767 256.724 543.28 257.212C542.792 257.699 542.518 258.36 542.518 259.05V281.31C542.517 281.651 542.584 281.99 542.715 282.306C542.845 282.621 543.037 282.908 543.278 283.15C543.52 283.391 543.807 283.583 544.122 283.713C544.438 283.844 544.776 283.91 545.118 283.91H567.378C568.068 283.909 568.729 283.635 569.216 283.148C569.704 282.66 569.978 281.999 569.978 281.31V259.05C569.976 258.361 569.702 257.701 569.214 257.213C568.727 256.726 568.067 256.452 567.378 256.45Z" fill="white"/>
<path d="M567.378 294.399H545.118C544.429 294.4 543.767 294.674 543.28 295.161C542.792 295.649 542.518 296.31 542.518 297V319.26C542.517 319.601 542.584 319.94 542.715 320.255C542.845 320.571 543.037 320.858 543.278 321.1C543.52 321.341 543.807 321.533 544.122 321.663C544.438 321.793 544.776 321.86 545.118 321.86H567.378C568.068 321.859 568.729 321.585 569.216 321.098C569.704 320.61 569.978 319.949 569.978 319.26V297C569.976 296.311 569.702 295.65 569.214 295.163C568.727 294.676 568.067 294.401 567.378 294.399Z" fill="#E6E6E6"/>
<path d="M567.378 332.35H545.118C544.776 332.349 544.438 332.416 544.122 332.546C543.807 332.677 543.52 332.868 543.278 333.11C543.037 333.351 542.845 333.638 542.715 333.954C542.584 334.27 542.517 334.608 542.518 334.95V357.21C542.517 357.551 542.584 357.89 542.715 358.205C542.845 358.521 543.037 358.808 543.278 359.05C543.52 359.291 543.807 359.483 544.122 359.613C544.438 359.744 544.776 359.81 545.118 359.81H567.378C568.068 359.809 568.729 359.535 569.216 359.048C569.704 358.56 569.978 357.899 569.978 357.21V334.95C569.978 334.26 569.704 333.599 569.216 333.111C568.729 332.624 568.068 332.35 567.378 332.35Z" fill="#890AFF"/>
<path d="M614.138 180.55H591.868C591.18 180.552 590.521 180.827 590.036 181.314C589.55 181.802 589.278 182.462 589.278 183.149V205.419C589.278 206.106 589.551 206.765 590.037 207.251C590.522 207.736 591.181 208.009 591.868 208.009H614.138C614.826 208.01 615.486 207.737 615.973 207.252C616.461 206.766 616.736 206.107 616.738 205.419V183.149C616.736 182.46 616.461 181.8 615.974 181.313C615.487 180.826 614.827 180.552 614.138 180.55Z" fill="white"/>
<path d="M614.138 218.5H591.868C591.18 218.502 590.521 218.777 590.036 219.264C589.55 219.752 589.278 220.412 589.278 221.1V243.37C589.278 244.056 589.551 244.715 590.037 245.201C590.522 245.686 591.181 245.959 591.868 245.96H614.138C614.826 245.96 615.486 245.687 615.973 245.202C616.461 244.716 616.736 244.057 616.738 243.37V221.1C616.736 220.411 616.461 219.75 615.974 219.263C615.487 218.776 614.827 218.501 614.138 218.5Z" fill="white"/>
<path d="M614.138 256.45H591.868C591.18 256.452 590.521 256.727 590.036 257.215C589.55 257.702 589.278 258.362 589.278 259.05V281.31C589.277 281.651 589.343 281.988 589.473 282.304C589.603 282.619 589.793 282.905 590.034 283.147C590.274 283.388 590.56 283.58 590.875 283.711C591.19 283.842 591.527 283.909 591.868 283.91H614.138C614.827 283.909 615.488 283.635 615.976 283.148C616.464 282.66 616.738 281.999 616.738 281.31V259.05C616.736 258.361 616.461 257.701 615.974 257.213C615.487 256.726 614.827 256.452 614.138 256.45Z" fill="white"/>
<path d="M614.138 294.399H591.868C591.18 294.402 590.521 294.677 590.036 295.164C589.55 295.652 589.278 296.312 589.278 297V319.26C589.277 319.6 589.343 319.938 589.473 320.253C589.603 320.569 589.793 320.855 590.034 321.097C590.274 321.338 590.56 321.53 590.875 321.661C591.19 321.792 591.527 321.859 591.868 321.86H614.138C614.827 321.859 615.488 321.585 615.976 321.098C616.464 320.61 616.738 319.949 616.738 319.26V297C616.736 296.311 616.461 295.65 615.974 295.163C615.487 294.676 614.827 294.401 614.138 294.399Z" fill="#890AFF"/>
<path d="M614.138 332.35H591.868C591.527 332.35 591.19 332.418 590.875 332.548C590.56 332.679 590.274 332.871 590.034 333.113C589.793 333.354 589.603 333.641 589.473 333.956C589.343 334.271 589.277 334.609 589.278 334.95V357.21C589.277 357.55 589.343 357.888 589.473 358.203C589.603 358.519 589.793 358.805 590.034 359.047C590.274 359.288 590.56 359.48 590.875 359.611C591.19 359.742 591.527 359.809 591.868 359.81H614.138C614.827 359.809 615.488 359.535 615.976 359.048C616.464 358.56 616.738 357.899 616.738 357.21V334.95C616.738 334.26 616.464 333.599 615.976 333.111C615.488 332.624 614.827 332.35 614.138 332.35Z" fill="#E6E6E6"/>
<path d="M660.898 180.55H638.628C637.94 180.552 637.281 180.827 636.796 181.314C636.31 181.802 636.038 182.462 636.038 183.149V205.419C636.038 206.106 636.311 206.765 636.797 207.251C637.283 207.736 637.941 208.009 638.628 208.009H660.898C661.586 208.01 662.246 207.737 662.733 207.252C663.221 206.766 663.496 206.107 663.498 205.419V183.149C663.496 182.46 663.222 181.8 662.734 181.313C662.247 180.826 661.587 180.552 660.898 180.55Z" fill="white"/>
<path d="M660.898 218.5H638.628C637.94 218.502 637.281 218.777 636.796 219.264C636.31 219.752 636.038 220.412 636.038 221.1V243.37C636.038 244.056 636.311 244.715 636.797 245.201C637.283 245.686 637.941 245.959 638.628 245.96H660.898C661.586 245.96 662.246 245.687 662.733 245.202C663.221 244.716 663.496 244.057 663.498 243.37V221.1C663.496 220.411 663.222 219.75 662.734 219.263C662.247 218.776 661.587 218.502 660.898 218.5Z" fill="white"/>
<path d="M660.898 256.45H638.628C637.94 256.452 637.281 256.727 636.796 257.215C636.31 257.702 636.038 258.362 636.038 259.05V281.31C636.037 281.651 636.103 281.988 636.233 282.304C636.363 282.619 636.553 282.905 636.794 283.147C637.035 283.388 637.32 283.58 637.635 283.711C637.95 283.842 638.287 283.909 638.628 283.91H660.898C661.588 283.909 662.249 283.635 662.736 283.148C663.224 282.66 663.498 281.999 663.498 281.31V259.05C663.496 258.361 663.222 257.701 662.734 257.214C662.247 256.726 661.587 256.452 660.898 256.45Z" fill="#890AFF"/>
<path d="M660.898 294.399H638.628C637.94 294.402 637.281 294.677 636.796 295.164C636.31 295.652 636.038 296.312 636.038 297V319.26C636.037 319.6 636.103 319.938 636.233 320.253C636.363 320.569 636.553 320.855 636.794 321.097C637.035 321.338 637.32 321.53 637.635 321.661C637.95 321.792 638.287 321.859 638.628 321.86H660.898C661.588 321.859 662.249 321.585 662.736 321.098C663.224 320.61 663.498 319.949 663.498 319.26V297C663.496 296.311 663.222 295.65 662.734 295.163C662.247 294.676 661.587 294.401 660.898 294.399Z" fill="#E6E6E6"/>
<path d="M660.898 332.35H638.628C638.287 332.35 637.95 332.418 637.635 332.548C637.32 332.679 637.035 332.871 636.794 333.113C636.553 333.354 636.363 333.641 636.233 333.956C636.103 334.271 636.037 334.609 636.038 334.95V357.21C636.037 357.55 636.103 357.888 636.233 358.203C636.363 358.519 636.553 358.805 636.794 359.047C637.035 359.288 637.32 359.48 637.635 359.611C637.95 359.742 638.287 359.809 638.628 359.81H660.898C661.588 359.809 662.249 359.535 662.736 359.048C663.224 358.56 663.498 357.899 663.498 357.21V334.95C663.498 334.26 663.224 333.599 662.736 333.111C662.249 332.624 661.588 332.35 660.898 332.35Z" fill="white"/>
<path d="M707.658 180.55H685.388C684.7 180.552 684.041 180.827 683.556 181.314C683.07 181.802 682.798 182.462 682.798 183.149V205.419C682.798 206.106 683.071 206.765 683.557 207.251C684.042 207.736 684.701 208.009 685.388 208.009H707.658C708.346 208.01 709.006 207.737 709.493 207.252C709.98 206.766 710.256 206.107 710.258 205.419V183.149C710.256 182.46 709.981 181.8 709.494 181.313C709.007 180.826 708.347 180.552 707.658 180.55Z" fill="#890AFF"/>
<path d="M707.658 218.5H685.388C684.7 218.502 684.041 218.777 683.556 219.264C683.07 219.752 682.798 220.412 682.798 221.1V243.37C682.798 244.056 683.071 244.715 683.557 245.201C684.042 245.686 684.701 245.959 685.388 245.96H707.658C708.346 245.96 709.006 245.687 709.493 245.202C709.98 244.716 710.256 244.057 710.258 243.37V221.1C710.256 220.411 709.981 219.75 709.494 219.263C709.007 218.776 708.347 218.502 707.658 218.5Z" fill="#890AFF"/>
<path d="M707.658 256.45H685.388C684.7 256.452 684.041 256.727 683.556 257.215C683.07 257.702 682.798 258.362 682.798 259.05V281.31C682.797 281.651 682.863 281.988 682.993 282.304C683.123 282.619 683.313 282.905 683.554 283.147C683.794 283.388 684.08 283.58 684.395 283.711C684.71 283.842 685.047 283.909 685.388 283.91H707.658C708.347 283.909 709.008 283.635 709.496 283.148C709.984 282.66 710.258 281.999 710.258 281.31V259.05C710.256 258.361 709.981 257.701 709.494 257.214C709.007 256.726 708.347 256.452 707.658 256.45Z" fill="#E6E6E6"/>
<path d="M707.658 294.399H685.388C684.7 294.402 684.041 294.677 683.556 295.164C683.07 295.652 682.798 296.312 682.798 297V319.26C682.797 319.6 682.863 319.938 682.993 320.253C683.123 320.569 683.313 320.855 683.554 321.097C683.794 321.338 684.08 321.53 684.395 321.661C684.71 321.792 685.047 321.859 685.388 321.86H707.658C708.347 321.859 709.009 321.585 709.496 321.098C709.984 320.61 710.258 319.949 710.258 319.26V297C710.256 296.311 709.981 295.65 709.494 295.163C709.007 294.676 708.347 294.401 707.658 294.399Z" fill="white"/>
<path d="M707.658 332.35H685.388C685.047 332.35 684.71 332.418 684.395 332.548C684.08 332.679 683.794 332.871 683.554 333.113C683.313 333.354 683.123 333.641 682.993 333.956C682.863 334.271 682.797 334.609 682.798 334.95V357.21C682.797 357.55 682.863 357.888 682.993 358.203C683.123 358.519 683.313 358.805 683.554 359.047C683.794 359.288 684.08 359.48 684.395 359.611C684.71 359.742 685.047 359.809 685.388 359.81H707.658C708.347 359.809 709.009 359.535 709.496 359.048C709.984 358.56 710.258 357.899 710.258 357.21V334.95C710.258 334.26 709.984 333.599 709.496 333.111C709.009 332.624 708.347 332.35 707.658 332.35Z" fill="#890AFF"/>
<path d="M754.418 180.55H732.148C731.46 180.552 730.801 180.827 730.316 181.314C729.83 181.802 729.558 182.462 729.558 183.149V205.419C729.558 206.106 729.831 206.765 730.317 207.251C730.803 207.736 731.461 208.009 732.148 208.009H754.418C755.106 208.01 755.766 207.737 756.253 207.252C756.741 206.766 757.016 206.107 757.018 205.419V183.149C757.016 182.46 756.741 181.8 756.254 181.313C755.767 180.826 755.107 180.552 754.418 180.55Z" fill="#890AFF"/>
<path d="M754.418 218.5H732.148C731.46 218.502 730.801 218.777 730.316 219.264C729.83 219.752 729.558 220.412 729.558 221.1V243.37C729.558 244.056 729.831 244.715 730.317 245.201C730.803 245.686 731.461 245.959 732.148 245.96H754.418C755.106 245.96 755.766 245.687 756.253 245.202C756.741 244.716 757.016 244.057 757.018 243.37V221.1C757.016 220.411 756.741 219.75 756.254 219.263C755.767 218.776 755.107 218.502 754.418 218.5Z" fill="#890AFF"/>
<path d="M754.418 256.45H732.148C731.46 256.452 730.801 256.727 730.316 257.215C729.83 257.702 729.558 258.362 729.558 259.05V281.31C729.557 281.651 729.623 281.988 729.753 282.304C729.883 282.619 730.073 282.905 730.314 283.147C730.555 283.388 730.84 283.58 731.155 283.711C731.47 283.842 731.807 283.909 732.148 283.91H754.418C755.108 283.909 755.769 283.635 756.256 283.148C756.744 282.66 757.018 281.999 757.018 281.31V259.05C757.016 258.361 756.742 257.701 756.254 257.214C755.767 256.726 755.107 256.452 754.418 256.45Z" fill="#E6E6E6"/>
<path d="M754.418 294.399H732.148C731.46 294.402 730.801 294.677 730.316 295.164C729.83 295.652 729.558 296.312 729.558 297V319.26C729.557 319.6 729.623 319.938 729.753 320.253C729.883 320.569 730.073 320.855 730.314 321.097C730.555 321.338 730.84 321.53 731.155 321.661C731.47 321.792 731.807 321.859 732.148 321.86H754.418C755.108 321.859 755.769 321.585 756.256 321.098C756.744 320.61 757.018 319.949 757.018 319.26V297C757.016 296.311 756.741 295.65 756.254 295.163C755.767 294.676 755.107 294.401 754.418 294.399Z" fill="#890AFF"/>
<path d="M754.418 332.35H732.148C731.807 332.35 731.47 332.418 731.155 332.548C730.84 332.679 730.555 332.871 730.314 333.113C730.073 333.354 729.883 333.641 729.753 333.956C729.623 334.271 729.557 334.609 729.558 334.95V357.21C729.557 357.55 729.623 357.888 729.753 358.203C729.883 358.519 730.073 358.805 730.314 359.047C730.555 359.288 730.84 359.48 731.155 359.611C731.47 359.742 731.807 359.809 732.148 359.81H754.418C755.108 359.809 755.769 359.535 756.256 359.048C756.744 358.56 757.018 357.899 757.018 357.21V334.95C757.018 334.26 756.744 333.599 756.256 333.111C755.769 332.624 755.108 332.35 754.418 332.35Z" fill="#890AFF"/>
<path d="M801.178 180.55H778.908C778.22 180.552 777.561 180.827 777.076 181.314C776.59 181.802 776.318 182.462 776.318 183.149V205.419C776.318 206.106 776.591 206.765 777.077 207.251C777.562 207.736 778.221 208.009 778.908 208.009H801.178C801.866 208.01 802.526 207.737 803.013 207.252C803.5 206.766 803.775 206.107 803.778 205.419V183.149C803.776 182.46 803.501 181.8 803.014 181.313C802.527 180.826 801.867 180.552 801.178 180.55Z" fill="#E6E6E6"/>
<path d="M801.178 218.5H778.908C778.22 218.502 777.561 218.777 777.076 219.264C776.59 219.752 776.318 220.412 776.318 221.1V243.37C776.318 244.056 776.591 244.715 777.077 245.201C777.562 245.686 778.221 245.959 778.908 245.96H801.178C801.866 245.96 802.526 245.687 803.013 245.202C803.5 244.716 803.775 244.057 803.778 243.37V221.1C803.776 220.411 803.501 219.75 803.014 219.263C802.527 218.776 801.867 218.502 801.178 218.5Z" fill="#890AFF"/>
<path d="M801.178 256.45H778.908C778.22 256.452 777.561 256.727 777.076 257.215C776.59 257.702 776.318 258.362 776.318 259.05V281.31C776.317 281.651 776.383 281.988 776.513 282.304C776.643 282.619 776.833 282.905 777.074 283.147C777.314 283.388 777.6 283.58 777.915 283.711C778.23 283.842 778.567 283.909 778.908 283.91H801.178C801.867 283.909 802.528 283.635 803.016 283.148C803.503 282.66 803.777 281.999 803.778 281.31V259.05C803.776 258.361 803.501 257.701 803.014 257.214C802.527 256.726 801.867 256.452 801.178 256.45Z" fill="#890AFF"/>
<path d="M801.178 294.399H778.908C778.22 294.402 777.561 294.677 777.076 295.164C776.59 295.652 776.318 296.312 776.318 297V319.26C776.317 319.6 776.383 319.938 776.513 320.253C776.643 320.569 776.833 320.855 777.074 321.097C777.314 321.338 777.6 321.53 777.915 321.661C778.23 321.792 778.567 321.859 778.908 321.86H801.178C801.867 321.859 802.528 321.585 803.016 321.098C803.504 320.61 803.778 319.949 803.778 319.26V297C803.776 296.311 803.501 295.65 803.014 295.163C802.527 294.676 801.867 294.401 801.178 294.399Z" fill="#890AFF"/>
<path d="M801.178 332.35H778.908C778.567 332.35 778.23 332.418 777.915 332.548C777.6 332.679 777.314 332.871 777.074 333.113C776.833 333.354 776.643 333.641 776.513 333.956C776.383 334.271 776.317 334.609 776.318 334.95V357.21C776.317 357.55 776.383 357.888 776.513 358.203C776.643 358.519 776.833 358.805 777.074 359.047C777.314 359.288 777.6 359.48 777.915 359.611C778.23 359.742 778.567 359.809 778.908 359.81H801.178C801.867 359.809 802.528 359.535 803.016 359.048C803.504 358.56 803.778 357.899 803.778 357.21V334.95C803.778 334.26 803.504 333.599 803.016 333.111C802.528 332.624 801.867 332.35 801.178 332.35Z" fill="#E6E6E6"/>
<path d="M847.938 180.55H825.668C824.98 180.552 824.321 180.827 823.836 181.314C823.35 181.802 823.078 182.462 823.078 183.149V205.419C823.078 206.106 823.351 206.765 823.837 207.251C824.323 207.736 824.981 208.009 825.668 208.009H847.938C848.626 208.01 849.286 207.737 849.773 207.252C850.261 206.766 850.536 206.107 850.538 205.419V183.149C850.536 182.46 850.262 181.8 849.774 181.313C849.287 180.826 848.627 180.552 847.938 180.55Z" fill="#E6E6E6"/>
<path d="M847.938 218.5H825.668C824.98 218.502 824.321 218.777 823.836 219.264C823.35 219.752 823.078 220.412 823.078 221.1V243.37C823.078 244.056 823.351 244.715 823.837 245.201C824.323 245.686 824.981 245.959 825.668 245.96H847.938C848.626 245.96 849.286 245.687 849.773 245.202C850.261 244.716 850.536 244.057 850.538 243.37V221.1C850.536 220.411 850.262 219.75 849.774 219.263C849.287 218.776 848.627 218.502 847.938 218.5Z" fill="#E6E6E6"/>
<path d="M847.938 256.45H825.668C824.98 256.452 824.321 256.727 823.836 257.215C823.35 257.702 823.078 258.362 823.078 259.05V281.31C823.077 281.651 823.143 281.988 823.273 282.304C823.403 282.619 823.593 282.905 823.834 283.147C824.075 283.388 824.36 283.58 824.675 283.711C824.99 283.842 825.327 283.909 825.668 283.91H847.938C848.628 283.909 849.289 283.635 849.776 283.148C850.264 282.66 850.538 281.999 850.538 281.31V259.05C850.536 258.361 850.262 257.701 849.774 257.214C849.287 256.726 848.627 256.452 847.938 256.45Z" fill="#890AFF"/>
<path d="M847.938 294.399H825.668C824.98 294.402 824.321 294.677 823.836 295.164C823.35 295.652 823.078 296.312 823.078 297V319.26C823.077 319.6 823.143 319.938 823.273 320.253C823.403 320.569 823.593 320.855 823.834 321.097C824.075 321.338 824.36 321.53 824.675 321.661C824.99 321.792 825.327 321.859 825.668 321.86H847.938C848.628 321.859 849.289 321.585 849.776 321.098C850.264 320.61 850.538 319.949 850.538 319.26V297C850.536 296.311 850.262 295.65 849.774 295.163C849.287 294.676 848.627 294.401 847.938 294.399Z" fill="#E6E6E6"/>
<path d="M847.938 332.35H825.668C825.327 332.35 824.99 332.418 824.675 332.548C824.36 332.679 824.075 332.871 823.834 333.113C823.593 333.354 823.403 333.641 823.273 333.956C823.143 334.271 823.077 334.609 823.078 334.95V357.21C823.077 357.55 823.143 357.888 823.273 358.203C823.403 358.519 823.593 358.805 823.834 359.047C824.075 359.288 824.36 359.48 824.675 359.611C824.99 359.742 825.327 359.809 825.668 359.81H847.938C848.628 359.809 849.289 359.535 849.776 359.048C850.264 358.56 850.538 357.899 850.538 357.21V334.95C850.538 334.26 850.264 333.599 849.776 333.111C849.289 332.624 848.628 332.35 847.938 332.35Z" fill="#E6E6E6"/>
<path d="M336.095 660.551H335.475L336.005 660.481L336.095 660.551Z" fill="#2F2E41"/>
<path d="M282.814 245.555C320.547 245.555 351.136 214.966 351.136 177.233C351.136 139.5 320.547 108.911 282.814 108.911C245.081 108.911 214.492 139.5 214.492 177.233C214.492 214.966 245.081 245.555 282.814 245.555Z" fill="#FFB6B6"/>
<path d="M342.646 127.14C342.646 127.14 360.515 92.9796 321.202 89.874C321.202 89.874 287.687 59.4717 253.526 84.316C253.526 84.316 234.893 84.316 224.704 105.402C224.704 105.402 210.049 99.8436 206.828 114.718C206.828 114.718 196.105 145.774 206.828 173.724C217.552 201.674 221.114 204.779 221.114 204.779C221.114 204.779 203.493 146.181 246.384 143.075C289.274 139.969 337.27 113.166 340.845 147.326C344.419 181.487 349.798 189.904 349.798 189.904C349.798 189.904 383.748 141.115 342.646 127.14Z" fill="#2F2E41"/>
<path d="M459.548 345.61L459.328 346.77L456.858 359.81L439.788 450.01L438.778 455.32L436.658 466.55L433.758 481.87L427.328 515.82L425.488 525.55L424.798 529.2L424.558 530.48L422.648 540.55L422.068 543.59L417.408 578.12L413.338 608.21L426.958 621.829L418.838 629.949L413.508 660.48L413.518 660.55H195.988C187.188 654.85 178.515 648.973 169.968 642.919L171.758 629.52C171.758 629.52 177.918 605.59 175.328 602.73C172.748 599.87 167.088 594.76 167.088 594.76L174.218 578.12L175.208 575.81L173.548 541.38L173.508 540.55L172.958 529.199L172.888 527.739L172.778 525.55L170.668 481.869L170.628 481.149L169.988 467.909L169.388 455.32L169.128 450.009L166.558 396.879L164.818 360.8L163.298 329.39L169.408 327.32L234.758 305.109L261.828 269.919L318.168 270.339L345.748 270.55L391.768 313.229L402.238 318.229L402.318 318.269L409.828 321.859L428.868 330.949L448.998 340.57L459.328 345.5L459.548 345.61Z" fill="#CACACA"/>
<path d="M269.109 558.051C264.98 559.65 260.551 560.325 256.134 560.028C251.716 559.73 247.417 558.468 243.54 556.329C239.664 554.191 236.303 551.228 233.695 547.65C231.086 544.073 229.295 539.966 228.445 535.621L121.886 520.503L158.929 478.601L254.44 499.381C261.835 498.438 269.318 500.24 275.473 504.446C281.628 508.651 286.026 514.969 287.834 522.201C289.642 529.433 288.735 537.076 285.283 543.684C281.832 550.291 276.077 555.403 269.109 558.051Z" fill="#FFB6B6"/>
<path d="M221.598 481.869C219.624 479.367 216.83 477.642 213.708 476.999L169.988 467.909L165.498 466.979C162.889 466.435 160.424 465.345 158.265 463.782C156.105 462.219 154.3 460.218 152.968 457.909C151.586 455.486 150.75 452.79 150.518 450.009C150.31 447.482 150.612 444.938 151.408 442.529L166.558 396.879L176.388 367.26C177.579 363.687 178.282 359.97 178.478 356.209C179.026 345.802 175.806 335.546 169.408 327.32C163.783 320.089 155.982 314.859 147.157 312.403C138.331 309.946 128.95 310.394 120.398 313.679C120.148 313.77 119.888 313.87 119.638 313.969C113.505 316.418 108.026 320.26 103.633 325.19C99.2408 330.121 96.0551 336.006 94.328 342.379L83.648 381.229L61.618 461.32C59.4127 469.344 58.9672 477.75 60.3119 485.962C61.6567 494.175 64.7599 502 69.4093 508.902C74.0587 515.804 80.1444 521.619 87.2499 525.951C94.3555 530.283 102.313 533.028 110.578 533.999L173.548 541.379L202.688 544.8C206.058 545.204 209.456 544.325 212.206 542.336C214.956 540.348 216.857 537.396 217.528 534.069C217.575 533.888 217.612 533.705 217.638 533.519L218.338 529.199L224.268 492.819L224.328 492.449C224.637 490.593 224.554 488.693 224.083 486.87C223.613 485.048 222.767 483.345 221.598 481.869Z" fill="#CACACA"/>
<path d="M336.983 559.217C341.295 560.219 345.775 560.262 350.107 559.345C354.438 558.427 358.516 556.571 362.053 553.907C365.589 551.243 368.499 547.837 370.576 543.927C372.654 540.017 373.849 535.699 374.077 531.277L477.439 501.283L434.857 465.024L343.231 499.065C335.778 499.174 328.623 502.013 323.123 507.045C317.622 512.077 314.159 518.951 313.389 526.366C312.619 533.78 314.595 541.22 318.943 547.275C323.292 553.329 329.71 557.579 336.983 559.217Z" fill="#FFB6B6"/>
<path d="M528.758 434.19L479.598 321.05C475.577 311.761 468.396 304.197 459.328 299.7C456.525 298.32 453.581 297.247 450.548 296.5C450.078 296.38 449.608 296.27 449.138 296.18C442.706 294.776 436.034 294.899 429.658 296.54C423.83 298.037 418.382 300.746 413.672 304.49C408.961 308.234 405.092 312.93 402.318 318.27C402.288 318.314 402.261 318.361 402.238 318.41C399.139 324.404 397.491 331.043 397.427 337.791C397.363 344.538 398.884 351.207 401.868 357.26L402.478 358.48L437.218 428.25C438.404 430.635 439.073 433.245 439.179 435.908C439.286 438.57 438.829 441.225 437.837 443.698C436.846 446.171 435.342 448.406 433.426 450.258C431.51 452.109 429.224 453.534 426.718 454.44L424.278 455.32L380.398 471.17C377.105 472.345 374.397 474.751 372.843 477.883C371.29 481.015 371.012 484.627 372.068 487.96L372.178 488.31L384.478 527.67C384.538 527.85 384.598 528.03 384.668 528.21C384.776 528.549 384.91 528.88 385.068 529.2C386.375 532.131 388.686 534.501 391.584 535.881C394.482 537.261 397.778 537.562 400.878 536.73L424.558 530.48L429.388 529.2L490.538 513.05C498.584 510.924 506.076 507.084 512.5 501.793C518.924 496.503 524.129 489.886 527.759 482.397C531.389 474.908 533.357 466.723 533.529 458.403C533.702 450.082 532.074 441.823 528.758 434.19Z" fill="#CACACA"/>
<path d="M44.8979 529.2C59.0684 546.483 74.3508 562.825 90.6479 578.12H542.618C546.972 578.127 551.146 579.86 554.225 582.94C557.303 586.02 559.034 590.195 559.038 594.55L559.688 709.08C587.493 696.305 613.531 679.994 637.158 660.55C643.718 655.16 650.075 649.536 656.228 643.68C660.258 639.86 664.191 635.946 668.028 631.94C696.792 601.975 720.084 567.203 736.848 529.2H44.8979Z" fill="#3F3D56"/>
<path d="M668.028 631.939C664.198 635.949 660.265 639.863 656.228 643.679H560.018V631.939H668.028Z" fill="white"/>
<path d="M458.648 256.45C458.173 255.572 457.469 254.84 456.612 254.329C455.755 253.819 454.776 253.55 453.778 253.55H125.938C124.468 253.554 123.06 254.14 122.021 255.18C120.983 256.22 120.399 257.63 120.398 259.1V455.32H459.328V259.1C459.333 258.173 459.099 257.26 458.648 256.45Z" fill="#3F3D56"/>
<path d="M120.101 450.007V474.221C120.101 475.225 120.299 476.219 120.683 477.146C121.067 478.074 121.63 478.916 122.34 479.626C123.05 480.336 123.892 480.899 124.82 481.283C125.747 481.667 126.741 481.865 127.745 481.865H252.842V529.652H251.18C251.049 529.652 250.92 529.677 250.8 529.727C250.679 529.777 250.57 529.85 250.478 529.942C250.385 530.035 250.312 530.144 250.262 530.265C250.212 530.385 250.187 530.514 250.187 530.645V533.968C250.187 534.099 250.212 534.228 250.262 534.348C250.312 534.469 250.385 534.578 250.478 534.67C250.57 534.763 250.679 534.836 250.8 534.886C250.92 534.936 251.049 534.961 251.18 534.961H328.838C328.969 534.961 329.098 534.936 329.218 534.886C329.339 534.836 329.448 534.763 329.54 534.67C329.633 534.578 329.706 534.469 329.756 534.348C329.805 534.228 329.831 534.099 329.831 533.968V530.645C329.831 530.514 329.805 530.385 329.756 530.265C329.706 530.144 329.633 530.035 329.54 529.942C329.448 529.85 329.339 529.777 329.218 529.727C329.098 529.677 328.969 529.652 328.838 529.652H327.176V481.865H452.273C453.277 481.865 454.271 481.667 455.198 481.283C456.126 480.899 456.968 480.336 457.678 479.626C458.388 478.916 458.951 478.074 459.335 477.146C459.719 476.219 459.917 475.225 459.917 474.221V450.007H120.101Z" fill="#3F3D56"/>
<path d="M285.903 380.51C303.193 380.51 317.209 366.494 317.209 349.204C317.209 331.914 303.193 317.897 285.903 317.897C268.613 317.897 254.596 331.914 254.596 349.204C254.596 366.494 268.613 380.51 285.903 380.51Z" fill="#890AFF"/>
<path d="M365.668 173.5H360.668C360.668 135.7 323.258 110.93 285.518 110.91C280.029 110.894 274.551 111.426 269.168 112.5C263.108 113.71 256.818 115.16 250.638 117.05C226.268 124.52 203.668 138.96 203.668 173.5C203.663 180.208 204.516 186.889 206.208 193.38L201.368 194.64C199.573 187.736 198.665 180.632 198.668 173.5C198.668 143.32 211.058 122.59 232.458 110.23C243.708 103.73 257.438 99.5397 273.168 97.4997C279.714 96.6288 286.331 96.4278 292.918 96.8997C336.318 100.02 365.668 133.3 365.668 173.5Z" fill="#890AFF"/>
<path d="M373.998 176.269L372.028 161.709C371.542 158.033 369.771 154.646 367.028 152.149C365.267 150.522 363.159 149.316 360.864 148.623C358.568 147.93 356.145 147.768 353.778 148.149L350.648 148.579C349.791 148.692 348.966 148.974 348.219 149.408C347.472 149.843 346.819 150.421 346.298 151.109C345.772 151.796 345.387 152.58 345.166 153.415C344.944 154.251 344.891 155.123 345.008 155.979L349.558 189.519C349.745 190.887 350.358 192.16 351.309 193.16C352.26 194.159 353.502 194.834 354.858 195.089C355.26 195.17 355.668 195.21 356.078 195.209C356.372 195.209 356.666 195.189 356.958 195.149L360.458 194.679C362.592 194.396 364.645 193.68 366.492 192.574C368.339 191.468 369.941 189.997 371.198 188.249C371.468 187.869 371.728 187.479 371.968 187.079C373.842 183.807 374.557 179.999 373.998 176.269Z" fill="#890AFF"/>
<path d="M348.628 149.189C347.71 149.636 346.911 150.294 346.298 151.109C345.772 151.796 345.387 152.58 345.166 153.415C344.944 154.251 344.891 155.123 345.008 155.979L349.558 189.519C349.745 190.886 350.358 192.16 351.309 193.16C352.26 194.159 353.502 194.834 354.858 195.089L348.628 149.189Z" fill="white"/>
<path d="M373.998 176.269L372.028 161.709C371.542 158.032 369.771 154.646 367.028 152.149L371.558 185.519C371.626 186.055 371.764 186.58 371.968 187.079C373.842 183.807 374.558 179.999 373.998 176.269Z" fill="#3F3D56"/>
<path d="M358.428 186.76C359.797 186.575 360.484 183.319 359.965 179.488C359.445 175.657 357.915 172.702 356.546 172.887C355.178 173.073 354.49 176.329 355.01 180.16C355.53 183.991 357.06 186.946 358.428 186.76Z" fill="#3F3D56"/>
<path d="M355.428 168.76C356.797 168.575 357.484 165.319 356.965 161.488C356.445 157.657 354.915 154.702 353.546 154.887C352.178 155.073 351.49 158.329 352.01 162.16C352.53 165.991 354.06 168.946 355.428 168.76Z" fill="#3F3D56"/>
<path d="M374.428 175.76C375.797 175.575 376.484 172.319 375.965 168.488C375.445 164.657 373.915 161.702 372.546 161.887C371.178 162.073 370.49 165.329 371.01 169.16C371.53 172.991 373.06 175.946 374.428 175.76Z" fill="#3F3D56"/>
<path d="M285.518 110.909C280.029 110.893 274.551 111.426 269.168 112.499C263.108 113.709 256.818 115.159 250.638 117.049C240.988 116.579 233.888 114.079 232.458 110.229C243.708 103.729 257.438 99.5394 273.168 97.4994C279.714 96.6286 286.331 96.4276 292.918 96.8994C293.615 97.3082 294.218 97.8599 294.687 98.5183C295.156 99.1767 295.48 99.9268 295.638 100.719C296.108 104.199 292.138 107.899 285.518 110.909Z" fill="#3F3D56"/>
<path d="M221.678 208.2L213.978 176.19C213.704 175.035 213.094 173.987 212.226 173.177C211.357 172.368 210.269 171.833 209.098 171.64C208.767 171.588 208.433 171.561 208.098 171.56C207.626 171.561 207.157 171.618 206.698 171.73L203.718 172.45C199.881 173.378 196.569 175.79 194.509 179.157C192.449 182.524 191.808 186.571 192.728 190.41L196.178 204.77C196.966 208.15 198.842 211.179 201.518 213.39C201.952 213.74 202.406 214.064 202.878 214.36C204.554 215.41 206.424 216.114 208.377 216.43C210.33 216.746 212.326 216.668 214.248 216.2L217.218 215.48C218.003 215.296 218.742 214.952 219.388 214.47C220.349 213.769 221.079 212.799 221.487 211.683C221.895 210.566 221.961 209.354 221.678 208.2Z" fill="#890AFF"/>
<path d="M205.536 202.244C206.878 201.921 207.233 198.612 206.329 194.853C205.424 191.094 203.603 188.309 202.26 188.632C200.918 188.955 200.563 192.264 201.467 196.023C202.372 199.782 204.193 202.567 205.536 202.244Z" fill="#3F3D56"/>
<path d="M195.536 205.244C196.878 204.921 197.233 201.612 196.329 197.853C195.424 194.094 193.603 191.309 192.26 191.632C190.918 191.955 190.563 195.264 191.467 199.023C192.372 202.782 194.193 205.567 195.536 205.244Z" fill="#3F3D56"/>
<path d="M222.168 208.079L214.468 176.069C214.168 174.82 213.506 173.687 212.565 172.811C211.624 171.936 210.446 171.358 209.178 171.149L219.688 214.869C220.726 214.109 221.515 213.059 221.957 211.85C222.398 210.642 222.472 209.33 222.168 208.079Z" fill="white"/>
<path d="M194.468 184.07C194.256 183.179 193.857 182.344 193.298 181.62C192.216 184.423 192.017 187.49 192.728 190.41L196.178 204.77C196.966 208.15 198.842 211.179 201.518 213.39L194.468 184.07Z" fill="#3F3D56"/>
</g>
<defs>
<clipPath id="clip0_6120_166">
<rect width="850.538" height="740.83" fill="white" transform="translate(0 0.5)"/>
</clipPath>
</defs>
</svg>
