<svg width="667" height="730" viewBox="0 0 667 730" fill="none" xmlns="http://www.w3.org/2000/svg">
<g clip-path="url(#clip0_6120_89)">
<path d="M15.1949 204.733C23.5392 199.026 34.2786 211.604 28.4366 219.436C22.5312 227.352 9.62065 225.108 5.17505 217.025C-0.497156 206.712 5.15139 194.444 14.2927 188.457C24.6768 181.655 37.4034 181.273 49.3936 181.91C61.5042 182.554 73.3223 183.408 85.3873 181.672C95.6002 180.177 105.579 177.378 115.08 173.345C134.615 165.139 151.768 152.144 164.956 135.561C171.11 127.753 176.861 118.978 180.384 109.631C183.097 102.432 184.382 92.9634 180.538 85.9163C179.701 84.3308 178.523 82.9515 177.087 81.8784C175.651 80.8053 173.994 80.0654 172.237 79.7124C170.48 79.3594 168.666 79.4021 166.927 79.8375C165.188 80.2729 163.568 81.0901 162.184 82.2296C155.777 87.4791 154.046 97.2267 158.946 104.019C164.203 111.308 174.123 113.806 182.663 112.479C194.533 110.635 204.145 102.255 213.232 95.0401L280.532 41.6092C291.629 32.7987 302.613 23.8174 313.854 15.1901C322.995 8.17414 334.149 1.37139 346.054 5.11878C350.853 6.62937 355.69 10.2067 356.889 15.3463C357.337 17.6997 357.135 20.1309 356.303 22.3777C355.472 24.6245 354.042 26.6017 352.17 28.096C351.315 28.8225 350.317 29.3631 349.242 29.6837C348.167 30.0042 347.036 30.0977 345.923 29.9581C344.809 29.8184 343.737 29.4488 342.774 28.8727C341.811 28.2966 340.978 27.5265 340.328 26.6114C337.82 23.1122 337.613 18.1233 339.058 14.1694C342.92 3.60251 357.09 2.49696 366.546 3.35636C377.704 4.48702 388.482 8.03442 398.13 13.7519C418.115 25.3592 432.894 44.2413 441.563 65.4681C451.168 88.9875 454.127 115.013 453.735 140.261C453.655 145.411 453.298 151.107 450.4 155.547C447.561 159.896 442.608 161.212 438.166 158.304C436.719 157.357 434.859 155.512 435.236 153.566C435.71 151.122 440.579 151.104 442.53 151.197C447.867 151.453 452.913 154.144 456.737 157.771C465.823 166.392 466.529 179.582 465.345 191.311C464.044 204.187 460.333 216.993 461.807 230.027C464.221 251.382 481.743 263.248 498.953 273.065C507.766 278.092 516.773 282.899 524.698 289.295C532.776 295.839 539.847 303.535 545.686 312.137C557.223 329.109 564.024 348.851 565.388 369.328C566.075 379.559 565.267 389.835 562.989 399.833C560.725 409.612 557.159 421.939 547.763 427.192C545.524 428.473 542.946 429.036 540.377 428.805C537.808 428.575 535.371 427.561 533.396 425.903C529.589 422.847 527.729 417.424 531.661 413.607C534.92 410.444 540.134 411.111 544.066 412.397C548.8 413.945 552.483 416.834 556.011 420.246C562.737 426.752 570.61 434.738 580.843 432.66C582.733 432.276 581.933 429.384 580.045 429.767C567.693 432.275 560.245 417.919 551.136 412.392C544.541 408.39 533.276 405.415 528.123 413.219C522.561 421.641 531.503 430.727 539.814 431.812C550.618 433.222 558.109 422.657 561.737 413.937C570.15 393.713 570.411 369.999 565.265 348.94C560.12 327.554 548.997 308.073 533.195 292.771C525.219 285.169 516.075 279.341 506.536 273.916C496.906 268.44 486.87 263.186 478.631 255.67C474.068 251.646 470.437 246.674 467.992 241.102C465.547 235.53 464.347 229.491 464.476 223.408C464.564 209.396 469.069 195.799 468.788 181.76C468.555 170.12 464.6 158.754 454.474 152.201C450.301 149.37 445.318 147.979 440.283 148.239C438.235 148.408 435.357 148.753 433.67 150.035C432.311 151.068 432.054 153.485 432.328 155.048C432.979 158.76 436.49 161.338 439.9 162.371C441.973 163.037 444.198 163.064 446.286 162.448C448.375 161.832 450.229 160.601 451.608 158.916C454.887 155.129 456.026 150.078 456.49 145.215C457.119 138.627 456.771 131.859 456.481 125.259C455.3 98.4394 450.001 70.9775 436.063 47.6846C424.215 27.8848 405.789 11.283 383.695 3.93823C373.284 0.477227 360.934 -1.59696 350.191 1.55076C340.949 4.25899 333.866 11.8659 335.393 21.9406C336.684 30.469 345.521 36.3678 353.308 30.9849C355.146 29.7147 356.687 28.063 357.827 26.1426C358.968 24.2221 359.681 22.0782 359.917 19.8572C360.153 17.6361 359.907 15.3903 359.195 13.273C358.484 11.1557 357.324 9.21691 355.795 7.58889C348.267 -0.294585 335.992 -0.23785 326.599 3.76858C320.942 6.18127 315.934 9.79617 311.104 13.5515C304.946 18.3384 298.876 23.2399 292.768 28.0893L219.187 86.5071C213.379 91.1178 207.665 95.897 201.664 100.255C196.064 104.322 189.885 108.089 182.991 109.395C173.283 111.234 157.916 106.412 159.093 94.0984C159.55 89.3167 162.718 84.0349 167.559 82.6637C172.305 81.3197 176.785 84.3725 178.549 88.6943C182.438 98.2221 177.871 109.121 173.328 117.485C162.08 138.195 144.337 155.06 123.547 166.035C113.141 171.541 101.988 175.499 90.4386 177.784C77.4659 180.333 64.7366 179.834 51.6204 179.039C38.906 178.268 25.5548 178.346 14.2224 184.972C4.93015 190.405 -1.26872 200.257 0.2208 211.236C1.51428 220.77 9.16061 228.057 19.0223 227.252C27.2998 226.576 35.6162 219.507 32.6794 210.529C30.2474 203.095 20.8604 197.232 13.6806 202.143C12.0966 203.226 13.5957 205.827 15.1949 204.733Z" fill="#3F3D56"/>
<path d="M650.958 421.329H578.273C577.137 421.33 576.049 421.782 575.246 422.585C574.443 423.388 573.991 424.477 573.99 425.612V470.866C573.991 472.001 574.443 473.09 575.246 473.893C576.049 474.696 577.137 475.148 578.273 475.149H650.958C652.094 475.148 653.183 474.696 653.986 473.893C654.789 473.09 655.24 472.001 655.242 470.866V425.612C655.24 424.477 654.789 423.388 653.986 422.585C653.183 421.782 652.094 421.33 650.958 421.329Z" fill="#F2F2F2"/>
<path d="M650.958 421.329H578.273C577.137 421.33 576.049 421.782 575.246 422.585C574.443 423.388 573.991 424.477 573.99 425.612V470.866C573.991 472.001 574.443 473.09 575.246 473.893C576.049 474.696 577.137 475.148 578.273 475.149H650.958C652.094 475.148 653.183 474.696 653.986 473.893C654.789 473.09 655.24 472.001 655.242 470.866V425.612C655.24 424.477 654.789 423.388 653.986 422.585C653.183 421.782 652.094 421.33 650.958 421.329ZM652.364 453.835C652.347 458.442 650.524 462.859 647.288 466.138C644.051 469.417 639.659 471.297 635.052 471.374C627.677 471.47 639.133 471.508 630.238 471.508C609.898 471.508 588.689 471.313 580.775 471.187C579.734 471.166 578.743 470.738 578.013 469.996C577.282 469.253 576.871 468.255 576.867 467.213V425.616C576.868 425.243 577.016 424.885 577.279 424.621C577.543 424.357 577.9 424.208 578.273 424.207H650.955C651.328 424.207 651.686 424.355 651.95 424.619C652.214 424.882 652.363 425.239 652.364 425.612L652.364 453.835Z" fill="#E6E6E6"/>
<path d="M642.011 395.271H586.632C586.142 395.271 585.664 395.423 585.264 395.705C584.864 395.988 584.56 396.387 584.395 396.848L575.842 420.844C575.714 421.202 575.675 421.585 575.726 421.962C575.777 422.339 575.918 422.698 576.137 423.009C576.356 423.32 576.647 423.573 576.984 423.749C577.321 423.924 577.696 424.016 578.076 424.016L652.348 424.148H652.351C652.744 424.148 653.131 424.051 653.477 423.864C653.823 423.678 654.118 423.409 654.334 423.081C654.55 422.752 654.682 422.376 654.717 421.984C654.752 421.593 654.689 421.199 654.534 420.837L644.194 396.71C644.011 396.283 643.707 395.918 643.319 395.662C642.93 395.406 642.476 395.27 642.011 395.271Z" fill="#E6E6E6"/>
<path d="M654.727 421.358C654.726 421.68 654.661 421.999 654.534 422.294L644.195 440.867C644.011 441.293 643.706 441.657 643.318 441.912C642.93 442.168 642.475 442.304 642.011 442.305H586.633C586.143 442.304 585.665 442.153 585.264 441.87C584.863 441.588 584.559 441.189 584.394 440.728L575.843 422.288C575.738 421.994 575.692 421.683 575.708 421.371C575.723 421.06 575.8 420.754 575.934 420.472C576.068 420.191 576.256 419.938 576.487 419.729C576.719 419.52 576.989 419.358 577.283 419.254C577.537 419.162 577.805 419.115 578.076 419.115L587.148 419.098L590.851 419.091L639.577 419.006L643.282 419L652.348 418.982H652.351C652.981 418.983 653.585 419.233 654.031 419.678C654.476 420.124 654.726 420.728 654.727 421.358Z" fill="#E6E6E6"/>
<path d="M583.722 455.274C584.82 455.274 599.9 456.196 599.9 457.294C599.9 458.392 584.82 459.251 583.722 459.251C583.194 459.251 582.689 459.042 582.316 458.669C581.943 458.296 581.733 457.79 581.733 457.263C581.733 456.735 581.943 456.23 582.316 455.857C582.689 455.484 583.194 455.274 583.722 455.274Z" fill="#E6E6E6"/>
<path d="M638.562 380.673H591.868C590.617 380.674 589.417 381.172 588.532 382.057C587.647 382.942 587.149 384.141 587.148 385.393V442.305H642.011C642.461 442.306 642.903 442.178 643.282 441.935V385.393C643.281 384.142 642.783 382.942 641.898 382.057C641.013 381.172 639.813 380.674 638.562 380.673Z" fill="#F2F2F2"/>
<path d="M620.74 384.5H595.15C594.011 384.501 592.918 384.954 592.112 385.76C591.306 386.565 590.853 387.658 590.851 388.797V442.305H639.577V403.337C639.571 398.343 637.585 393.555 634.053 390.024C630.522 386.492 625.734 384.506 620.74 384.5Z" fill="white"/>
<path d="M631.276 437.553H599.152C598.874 437.553 598.608 437.664 598.412 437.86C598.215 438.056 598.105 438.323 598.105 438.6C598.105 438.878 598.215 439.144 598.412 439.341C598.608 439.537 598.874 439.647 599.152 439.647H631.276C631.553 439.647 631.82 439.537 632.016 439.341C632.212 439.144 632.323 438.878 632.323 438.6C632.323 438.323 632.212 438.056 632.016 437.86C631.82 437.664 631.553 437.553 631.276 437.553Z" fill="#E4E4E4"/>
<path d="M631.276 433.412H599.152C598.874 433.412 598.608 433.523 598.411 433.719C598.214 433.916 598.104 434.182 598.104 434.46C598.104 434.738 598.214 435.005 598.411 435.201C598.608 435.398 598.874 435.508 599.152 435.508H631.276C631.413 435.508 631.55 435.481 631.677 435.428C631.804 435.376 631.92 435.299 632.017 435.201C632.114 435.104 632.191 434.988 632.244 434.861C632.297 434.734 632.324 434.598 632.324 434.46C632.324 434.323 632.297 434.186 632.244 434.059C632.191 433.932 632.114 433.816 632.017 433.719C631.92 433.622 631.804 433.545 631.677 433.492C631.55 433.439 631.413 433.412 631.276 433.412Z" fill="#E4E4E4"/>
<path d="M613.077 429.273H599.152C598.874 429.273 598.608 429.383 598.412 429.58C598.215 429.776 598.105 430.042 598.105 430.32C598.105 430.598 598.215 430.864 598.412 431.06C598.608 431.257 598.874 431.367 599.152 431.367H613.077C613.355 431.367 613.621 431.257 613.817 431.06C614.014 430.864 614.124 430.598 614.124 430.32C614.124 430.042 614.014 429.776 613.817 429.58C613.621 429.383 613.355 429.273 613.077 429.273Z" fill="#E4E4E4"/>
<path d="M631.276 420.602H599.152C598.875 420.603 598.609 420.714 598.413 420.91C598.217 421.107 598.107 421.373 598.107 421.65C598.107 421.928 598.217 422.194 598.413 422.39C598.609 422.587 598.875 422.697 599.152 422.698H631.276C631.414 422.699 631.55 422.672 631.678 422.619C631.806 422.567 631.921 422.49 632.019 422.392C632.117 422.295 632.194 422.179 632.247 422.052C632.3 421.925 632.327 421.788 632.327 421.65C632.327 421.512 632.3 421.376 632.247 421.248C632.194 421.121 632.117 421.005 632.019 420.908C631.921 420.811 631.806 420.733 631.678 420.681C631.55 420.628 631.414 420.602 631.276 420.602Z" fill="#E4E4E4"/>
<path d="M631.276 416.463H599.152C598.874 416.463 598.608 416.574 598.412 416.77C598.215 416.966 598.105 417.233 598.105 417.51C598.105 417.788 598.215 418.054 598.412 418.251C598.608 418.447 598.874 418.557 599.152 418.557H631.276C631.553 418.557 631.82 418.447 632.016 418.251C632.212 418.054 632.323 417.788 632.323 417.51C632.323 417.233 632.212 416.966 632.016 416.77C631.82 416.574 631.553 416.463 631.276 416.463Z" fill="#E4E4E4"/>
<path d="M613.077 412.322H599.152C598.874 412.322 598.608 412.433 598.411 412.629C598.214 412.826 598.104 413.092 598.104 413.37C598.104 413.648 598.214 413.915 598.411 414.111C598.608 414.308 598.874 414.418 599.152 414.418H613.077C613.355 414.418 613.622 414.308 613.818 414.111C614.015 413.915 614.125 413.648 614.125 413.37C614.125 413.092 614.015 412.826 613.818 412.629C613.622 412.433 613.355 412.322 613.077 412.322Z" fill="#E4E4E4"/>
<path d="M631.276 403.651H599.152C598.875 403.652 598.609 403.763 598.413 403.959C598.217 404.156 598.107 404.422 598.107 404.699C598.107 404.977 598.217 405.243 598.413 405.439C598.609 405.636 598.875 405.747 599.152 405.748H631.276C631.414 405.748 631.55 405.721 631.678 405.669C631.806 405.616 631.921 405.539 632.019 405.442C632.117 405.344 632.194 405.229 632.247 405.101C632.3 404.974 632.327 404.837 632.327 404.699C632.327 404.562 632.3 404.425 632.247 404.298C632.194 404.17 632.117 404.055 632.019 403.957C631.921 403.86 631.806 403.783 631.678 403.73C631.55 403.678 631.414 403.651 631.276 403.651Z" fill="#E4E4E4"/>
<path d="M631.276 399.513H599.152C598.875 399.514 598.609 399.624 598.413 399.821C598.217 400.017 598.107 400.283 598.107 400.561C598.107 400.838 598.217 401.104 598.413 401.301C598.609 401.497 598.875 401.608 599.152 401.609H631.276C631.414 401.609 631.55 401.582 631.678 401.53C631.806 401.477 631.921 401.4 632.019 401.303C632.117 401.206 632.194 401.09 632.247 400.963C632.3 400.835 632.327 400.699 632.327 400.561C632.327 400.423 632.3 400.286 632.247 400.159C632.194 400.032 632.117 399.916 632.019 399.819C631.921 399.721 631.806 399.644 631.678 399.592C631.55 399.539 631.414 399.512 631.276 399.513Z" fill="#E4E4E4"/>
<path d="M613.077 395.372H599.152C598.874 395.372 598.608 395.482 598.411 395.679C598.214 395.875 598.104 396.142 598.104 396.42C598.104 396.698 598.214 396.964 598.411 397.161C598.608 397.357 598.874 397.468 599.152 397.468H613.077C613.215 397.468 613.351 397.441 613.478 397.388C613.605 397.335 613.721 397.258 613.818 397.161C613.916 397.063 613.993 396.948 614.045 396.821C614.098 396.694 614.125 396.557 614.125 396.42C614.125 396.282 614.098 396.146 614.045 396.019C613.993 395.891 613.916 395.776 613.818 395.679C613.721 395.581 613.605 395.504 613.478 395.451C613.351 395.399 613.215 395.372 613.077 395.372Z" fill="#E4E4E4"/>
<path d="M267.124 199.127C284.243 199.127 298.121 185.249 298.121 168.13C298.121 151.01 284.243 137.132 267.124 137.132C250.005 137.132 236.126 151.01 236.126 168.13C236.126 185.249 250.005 199.127 267.124 199.127Z" fill="#FFB6B6"/>
<path d="M302.508 150.381C299.247 145.337 293.128 141.975 287.197 142.92C286.645 139.134 285.064 135.572 282.628 132.623C280.192 129.673 276.994 127.448 273.381 126.191C269.768 124.933 265.879 124.69 262.138 125.49C258.397 126.289 254.947 128.1 252.163 130.724C251.248 130.08 250.182 129.682 249.068 129.571C247.954 129.459 246.83 129.637 245.805 130.088C243.763 131.016 241.987 132.442 240.639 134.234C237.236 138.479 235.047 143.567 234.305 148.957C233.564 154.347 234.298 159.837 236.429 164.843C235.704 162.208 238.345 159.728 241.014 159.137C243.682 158.546 246.482 159.105 249.188 158.72C252.656 158.227 255.774 156.215 259.247 155.762C262.167 155.381 265.103 156.13 267.95 156.88C270.797 157.63 273.725 158.395 276.648 158.048C279.572 157.701 283.338 168.781 283.288 176.585C283.278 178.064 283.583 179.963 285.028 180.276C286.808 180.663 287.839 178.206 289.533 177.537C290.314 177.313 291.151 177.401 291.868 177.783C292.586 178.164 293.127 178.809 293.378 179.581C293.591 180.366 293.614 181.191 293.444 181.987C293.275 182.783 292.917 183.527 292.402 184.157C291.361 185.406 290.124 186.478 288.741 187.333L289.439 187.913C290.6 189.446 293.007 189.513 294.68 188.564C296.279 187.481 297.575 186.006 298.443 184.28C301.537 179.132 304.252 173.647 305.344 167.741C306.437 161.835 305.768 155.426 302.508 150.381Z" fill="#2F2E41"/>
<path d="M303.485 710.95L286.745 710.948L278.781 646.376L303.489 646.377L303.485 710.95Z" fill="#FFB6B6"/>
<path d="M304.075 728.414L252.595 728.412V727.761C252.595 722.446 254.706 717.35 258.464 713.592C262.222 709.835 267.318 707.724 272.632 707.723H272.634L282.037 700.589L299.582 707.724L304.076 707.725L304.075 728.414Z" fill="#2F2E41"/>
<path d="M333.673 681.391L320.54 691.771L274.246 646.056L293.63 630.733L333.673 681.391Z" fill="#FFB6B6"/>
<path d="M344.967 694.724L304.581 726.65L304.177 726.139C300.882 721.97 299.377 716.663 299.995 711.384C300.612 706.106 303.301 701.29 307.469 697.994L307.47 697.993L310.423 686.565L328.611 681.281L332.137 678.494L344.967 694.724Z" fill="#2F2E41"/>
<path d="M216.918 408.274L215.896 427.117L220.867 433.122L220.297 451.969L225.12 464.305L228.512 503.551L276.018 667.307L318.827 653.576L272.08 500.926L328.324 499.521L330.227 413.447L320.26 394.179L216.918 408.274Z" fill="#2F2E41"/>
<path d="M322.915 486.545L328.324 499.521L307.409 682.241L278.064 684.384L265.392 480.109L322.915 486.545Z" fill="#2F2E41"/>
<path d="M294.155 217.278L284.519 203.94L253.405 205.187L252.808 215.457L232.139 410.681L252.437 410.226L277.634 416.109L326.097 399.147L294.155 217.278Z" fill="#890AFF"/>
<path d="M240.121 414.291H192.403L204.852 326.418L209.9 290.799C209.9 290.799 206.327 265.343 204.597 252.043C204.436 250.623 204.682 249.187 205.306 247.902C205.872 246.699 206.611 245.584 207.499 244.594C213.303 237.901 226.357 232.097 234.544 228.921C238.76 227.295 241.69 226.359 241.69 226.359L252.806 215.46C268.763 235.396 240.121 414.291 240.121 414.291Z" fill="#3F3D56"/>
<path d="M288.111 210.021L303.249 218.696C303.249 218.696 348.081 226.059 352.441 242.897L335.938 292.711V397.404L295.932 413.447C295.932 413.447 261.423 244.309 288.111 210.021Z" fill="#3F3D56"/>
<path opacity="0.4" d="M272.788 475.879L265.392 561.548L277.985 661.252" fill="black"/>
<path d="M94.2196 316.285C95.4527 315.399 96.865 314.794 98.3572 314.513C99.8494 314.231 101.385 314.281 102.856 314.657C104.327 315.034 105.698 315.728 106.872 316.692C108.045 317.655 108.993 318.864 109.649 320.234L146.326 316.086L137.633 333.184L104.137 334.501C101.763 335.451 99.1235 335.496 96.7183 334.629C94.3132 333.763 92.3095 332.044 91.0871 329.798C89.8647 327.553 89.5084 324.937 90.0857 322.447C90.6631 319.956 92.1339 317.764 94.2196 316.285Z" fill="#FFB6B6"/>
<path d="M248.158 241.42L258.654 247.69L199.871 330.501L128.122 336.597L125.265 316.112L178.129 300.252L204.259 249.604L248.158 241.42Z" fill="#3F3D56"/>
<path d="M462.095 309.285C460.862 308.399 459.45 307.794 457.958 307.513C456.465 307.231 454.93 307.281 453.458 307.657C451.987 308.034 450.617 308.728 449.443 309.692C448.269 310.655 447.321 311.864 446.665 313.234L409.988 309.086L418.681 326.184L452.178 327.501C454.552 328.451 457.191 328.496 459.596 327.629C462.002 326.763 464.005 325.044 465.228 322.798C466.45 320.553 466.806 317.937 466.229 315.447C465.652 312.956 464.181 310.764 462.095 309.285Z" fill="#FFB6B6"/>
<path d="M308.156 234.42L297.661 240.69L356.444 323.501L428.193 329.597L431.049 309.112L378.186 293.252L352.056 242.604L308.156 234.42Z" fill="#3F3D56"/>
<path d="M165.241 214.934V213.84H146.894V188.309H145.803V213.84H124.775V194.123C124.408 194.412 124.045 194.71 123.687 195.015V213.84H109.798C109.644 214.202 109.495 214.567 109.355 214.934H123.687V236.388H105.892C105.909 236.756 105.934 237.118 105.965 237.482H123.687V254.598H110.41C110.573 254.965 110.744 255.327 110.924 255.687H123.687V270.074H124.775V255.687H145.803V270.074H146.894V255.687H165.241V254.598H146.894C146.894 252.35 147.336 250.124 148.196 248.047C149.056 245.971 150.317 244.084 151.906 242.494C153.496 240.905 155.382 239.644 157.459 238.784C159.536 237.924 161.762 237.482 164.009 237.482H165.241V236.388H146.894V214.934H165.241ZM145.803 254.598H124.775V237.482H145.803V254.598ZM145.803 236.388H124.775V235.959C124.776 233.198 125.32 230.463 126.376 227.913C127.433 225.362 128.982 223.044 130.935 221.092C132.887 219.139 135.205 217.591 137.756 216.534C140.307 215.478 143.041 214.934 145.803 214.934V236.388Z" fill="#E6E6E6"/>
<path d="M324.647 63.4555C324.504 63.5146 324.343 63.5144 324.2 63.4551C324.057 63.3958 323.943 63.2821 323.883 63.139L322.364 59.4679C322.305 59.3247 322.305 59.1638 322.364 59.0207C322.424 58.8775 322.538 58.7638 322.681 58.7046C322.824 58.6453 322.985 58.6454 323.128 58.7047C323.271 58.764 323.385 58.8778 323.444 59.021L324.963 62.6922C325.022 62.8354 325.022 62.9962 324.963 63.1393C324.903 63.2824 324.79 63.3961 324.647 63.4555Z" fill="#3F3D56"/>
<path d="M355.291 36.2589L350.756 25.3008C350.411 24.4679 349.906 23.7111 349.269 23.0735C348.632 22.4359 347.875 21.9301 347.042 21.5849C346.21 21.2397 345.317 21.0618 344.416 21.0615C343.514 21.0612 342.622 21.2385 341.789 21.5831L318.573 31.1907C317.74 31.5353 316.983 32.0407 316.346 32.6778C315.708 33.315 315.202 34.0715 314.857 34.9041C314.512 35.7368 314.334 36.6293 314.333 37.5306C314.333 38.432 314.51 39.3246 314.855 40.1575L339.733 100.275C340.078 101.107 340.583 101.864 341.22 102.502C341.858 103.139 342.614 103.645 343.447 103.99C344.279 104.336 345.172 104.513 346.073 104.514C346.975 104.514 347.867 104.337 348.7 103.992L371.916 94.3846C372.749 94.04 373.506 93.5346 374.144 92.8975C374.781 92.2603 375.287 91.5038 375.632 90.6712C375.977 89.8385 376.155 88.946 376.156 88.0447C376.156 87.1433 375.979 86.2507 375.634 85.4178L358.519 44.0591C358.571 44.0373 358.619 44.0055 358.659 43.9653C358.699 43.9251 358.731 43.8774 358.753 43.8249C358.775 43.7724 358.786 43.7161 358.786 43.6592C358.786 43.6024 358.775 43.5461 358.753 43.4935L355.856 36.4934C355.834 36.4409 355.803 36.3931 355.762 36.3529C355.722 36.3127 355.674 36.2808 355.622 36.259C355.569 36.2372 355.513 36.226 355.456 36.226C355.399 36.226 355.343 36.2372 355.291 36.2589Z" fill="#3F3D56"/>
<path d="M349.423 25.9019L374.266 85.9325C374.782 87.1793 374.786 88.5796 374.276 89.8291C373.766 91.0785 372.783 92.0762 371.541 92.6053C371.526 92.6152 371.509 92.6234 371.492 92.6299L348.163 102.284C346.906 102.804 345.494 102.803 344.238 102.283C342.982 101.762 341.984 100.763 341.464 99.5068L316.621 39.4762C316.364 38.8541 316.232 38.1875 316.232 37.5143C316.233 36.8411 316.366 36.1747 316.624 35.5529C316.882 34.9312 317.26 34.3663 317.736 33.8907C318.213 33.415 318.778 33.0379 319.4 32.7808L322.229 31.61C322.231 32.0097 322.332 32.4029 322.521 32.7548C322.711 33.1067 322.984 33.4064 323.317 33.6276C323.65 33.8489 324.033 33.9847 324.431 34.0233C324.829 34.0618 325.23 34.0018 325.599 33.8486L338.9 28.3444C339.19 28.224 339.454 28.0472 339.675 27.8241C339.903 27.5998 340.084 27.3326 340.208 27.038C340.333 26.7434 340.398 26.4272 340.4 26.1074C340.402 25.7876 340.341 25.4705 340.22 25.1744C340.099 24.8784 339.921 24.6091 339.696 24.382L342.729 23.1265C343.985 22.607 345.396 22.6076 346.651 23.128C347.906 23.6485 348.904 24.6463 349.423 25.9019Z" fill="#890AFF"/>
<path d="M322.055 57.1933C321.912 57.2523 321.751 57.2522 321.608 57.1929C321.465 57.1335 321.351 57.0199 321.292 56.8768L319.772 53.2056C319.713 53.0625 319.713 52.9016 319.773 52.7585C319.832 52.6153 319.946 52.5016 320.089 52.4424C320.232 52.3831 320.393 52.3831 320.536 52.4425C320.679 52.5018 320.793 52.6156 320.852 52.7588L322.371 56.43C322.43 56.5732 322.43 56.734 322.371 56.8771C322.312 57.0202 322.198 57.1339 322.055 57.1933Z" fill="#3F3D56"/>
<path d="M318.998 50.1116C318.855 50.1706 318.694 50.1705 318.551 50.1112C318.408 50.0519 318.294 49.9382 318.235 49.7951L316.716 46.1239C316.686 46.053 316.671 45.9769 316.67 45.9C316.67 45.8231 316.685 45.7469 316.715 45.6759C316.744 45.6048 316.787 45.5402 316.841 45.4858C316.896 45.4314 316.96 45.3882 317.031 45.3588C317.102 45.3294 317.178 45.3144 317.255 45.3145C317.332 45.3145 317.408 45.3298 317.479 45.3594C317.55 45.3889 317.615 45.4322 317.669 45.4868C317.723 45.5413 317.766 45.606 317.795 45.6771L319.315 49.3483C319.374 49.4915 319.373 49.6523 319.314 49.7954C319.255 49.9385 319.141 50.0522 318.998 50.1116Z" fill="#3F3D56"/>
<path d="M327.55 30.1316C327.491 29.9884 327.491 29.8276 327.55 29.6845C327.61 29.5415 327.723 29.4277 327.867 29.3683L331.538 27.8491C331.681 27.7898 331.842 27.7899 331.985 27.8492C332.128 27.9086 332.242 28.0224 332.301 28.1656C332.36 28.3087 332.36 28.4696 332.301 28.6127C332.241 28.7559 332.128 28.8696 331.985 28.9289L328.313 30.4481C328.17 30.5071 328.009 30.507 327.866 30.4477C327.723 30.3883 327.609 30.2747 327.55 30.1316Z" fill="white"/>
<path d="M333.813 28.1241C334.135 28.1241 334.397 27.8625 334.397 27.5398C334.397 27.2172 334.135 26.9556 333.813 26.9556C333.49 26.9556 333.229 27.2172 333.229 27.5398C333.229 27.8625 333.49 28.1241 333.813 28.1241Z" fill="white"/>
<path d="M460.532 287.379C460.458 287.379 460.384 287.378 460.31 287.375C459.442 287.344 458.595 287.103 457.84 286.674C457.086 286.245 456.446 285.639 455.975 284.91C452.451 279.642 448.125 274.956 443.155 271.023C440.147 268.618 437.003 266.382 433.963 264.219C426.119 258.642 418.732 253.39 414.632 246.132C405.692 230.306 416.22 208.263 431.261 198.377C448.13 187.29 470.32 185.551 491.786 185.323C494.017 185.299 496.249 185.287 498.482 185.288C537.159 185.302 575.755 188.831 613.793 195.831C626.441 198.165 639.681 201.024 650.321 207.961C660.897 214.858 667.326 225.718 666.698 235.631C665.783 250.101 650.443 260.913 636.476 263.74C623.162 266.432 609.331 264.613 594.689 262.686C591.457 262.261 588.115 261.821 584.809 261.439C548.889 257.287 481.411 270.084 478.557 270.631L475.724 271.173L464.735 285.315C464.241 285.959 463.604 286.481 462.875 286.839C462.146 287.197 461.344 287.382 460.532 287.379Z" fill="#890AFF"/>
<path d="M620.488 216.789H468.666C467.79 216.789 466.95 216.441 466.33 215.822C465.711 215.202 465.363 214.362 465.363 213.486C465.363 212.61 465.711 211.77 466.33 211.15C466.95 210.531 467.79 210.183 468.666 210.183H620.488C621.364 210.183 622.204 210.531 622.823 211.15C623.443 211.77 623.791 212.61 623.791 213.486C623.791 214.362 623.443 215.202 622.823 215.822C622.204 216.441 621.364 216.789 620.488 216.789Z" fill="white"/>
<path d="M620.487 237.065H468.666C467.791 237.065 466.951 236.717 466.332 236.098C465.713 235.48 465.365 234.641 465.364 233.765C465.363 232.89 465.709 232.05 466.327 231.43C466.945 230.81 467.784 230.461 468.659 230.458H620.487C621.363 230.46 622.201 230.809 622.82 231.428C623.438 232.047 623.785 232.887 623.785 233.762C623.785 234.637 623.438 235.476 622.82 236.096C622.201 236.715 621.363 237.064 620.487 237.065Z" fill="white"/>
<path d="M486.359 257.341H468.666C467.791 257.339 466.952 256.991 466.334 256.371C465.716 255.752 465.369 254.913 465.369 254.038C465.369 253.163 465.716 252.323 466.334 251.704C466.952 251.085 467.791 250.736 468.666 250.734H486.359C487.234 250.736 488.073 251.085 488.691 251.704C489.309 252.323 489.656 253.163 489.656 254.038C489.656 254.913 489.309 255.752 488.691 256.371C488.073 256.991 487.234 257.339 486.359 257.341Z" fill="white"/>
<path d="M462.407 310.409C471.275 310.409 478.464 303.22 478.464 294.352C478.464 285.484 471.275 278.295 462.407 278.295C453.539 278.295 446.35 285.484 446.35 294.352C446.35 303.22 453.539 310.409 462.407 310.409Z" fill="white"/>
<path d="M462.407 310.605C459.192 310.605 456.05 309.652 453.377 307.866C450.704 306.08 448.621 303.542 447.391 300.572C446.161 297.602 445.839 294.334 446.466 291.181C447.093 288.029 448.641 285.133 450.914 282.86C453.187 280.587 456.083 279.039 459.236 278.411C462.389 277.784 465.657 278.106 468.626 279.336C471.596 280.566 474.135 282.65 475.92 285.322C477.706 287.995 478.66 291.137 478.66 294.352C478.655 298.661 476.941 302.792 473.894 305.839C470.847 308.886 466.716 310.6 462.407 310.605Z" fill="#3F3D56"/>
<path d="M461.205 300.77C461.171 300.77 461.136 300.768 461.102 300.767C460.8 300.752 460.504 300.672 460.235 300.533C459.967 300.393 459.731 300.197 459.546 299.958L456.862 296.508C456.693 296.29 456.568 296.041 456.495 295.775C456.422 295.509 456.401 295.232 456.436 294.958C456.47 294.684 456.558 294.42 456.694 294.18C456.83 293.94 457.013 293.729 457.23 293.56L457.327 293.485C457.545 293.315 457.794 293.19 458.06 293.117C458.326 293.044 458.604 293.024 458.878 293.058C459.152 293.092 459.416 293.18 459.656 293.316C459.896 293.453 460.107 293.635 460.276 293.853C460.411 294.027 460.583 294.17 460.779 294.272C460.974 294.373 461.19 294.431 461.41 294.442C461.631 294.453 461.851 294.416 462.055 294.334C462.26 294.252 462.445 294.126 462.596 293.966L468.045 288.214C468.428 287.81 468.956 287.575 469.513 287.56C470.07 287.545 470.61 287.751 471.015 288.134L471.104 288.219C471.305 288.408 471.466 288.636 471.578 288.888C471.691 289.14 471.752 289.411 471.76 289.687C471.767 289.963 471.72 290.238 471.621 290.495C471.523 290.753 471.374 290.988 471.184 291.189L462.729 300.113C462.533 300.321 462.297 300.486 462.035 300.599C461.773 300.711 461.49 300.77 461.205 300.77Z" fill="white"/>
<path d="M162.592 86.7931L152.769 27.7175C152.571 26.5216 152.856 25.2962 153.561 24.3101C154.266 23.324 155.333 22.6578 156.529 22.4576L201.144 15.0387C202.34 14.8412 203.565 15.1262 204.551 15.8311C205.537 16.536 206.204 17.6032 206.404 18.7987L216.227 77.8743C216.425 79.0702 216.14 80.2956 215.435 81.2817C214.73 82.2678 213.663 82.934 212.467 83.1342L167.852 90.5531C166.656 90.7506 165.431 90.4656 164.445 89.7607C163.459 89.0558 162.792 87.9886 162.592 86.7931Z" fill="#3F3D56"/>
<path d="M163.047 68.3805L156.732 30.4013C156.547 29.2813 156.814 28.1336 157.474 27.2102C158.134 26.2867 159.134 25.6628 160.253 25.4753L198.596 19.0993C199.716 18.9143 200.864 19.1812 201.787 19.8413C202.711 20.5015 203.335 21.501 203.522 22.6206L212.264 75.1898C212.449 76.3099 212.182 77.4575 211.522 78.381C210.862 79.3045 209.862 79.9284 208.742 80.1159L184.99 84.0656C180.001 84.8895 174.889 83.7007 170.775 80.7602C166.662 77.8197 163.882 73.3675 163.047 68.3805Z" fill="white"/>
<path d="M164.702 39.9662C164.521 38.8717 164.782 37.7502 165.427 36.8478C166.072 35.9454 167.049 35.3357 168.143 35.1525L194.742 30.7295C195.284 30.6394 195.838 30.6569 196.373 30.7811C196.909 30.9052 197.414 31.1336 197.861 31.4531C198.308 31.7726 198.688 32.1771 198.979 32.6433C199.269 33.1096 199.465 33.6285 199.555 34.1706C199.645 34.7126 199.628 35.267 199.504 35.8023C199.38 36.3375 199.151 36.8431 198.832 37.29C198.512 37.737 198.108 38.1167 197.642 38.4074C197.175 38.6981 196.656 38.8941 196.114 38.9842L169.516 43.4072C168.421 43.588 167.3 43.3272 166.398 42.6821C165.495 42.037 164.885 41.0603 164.702 39.9662Z" fill="#890AFF"/>
<path d="M166.838 52.8066C166.657 51.7121 166.918 50.5906 167.563 49.6882C168.208 48.7857 169.184 48.176 170.279 47.9929L196.877 43.5699C197.972 43.3879 199.094 43.6481 199.996 44.2934C200.899 44.9388 201.509 45.9163 201.691 47.0109C201.873 48.1055 201.612 49.2277 200.967 50.1304C200.322 51.0331 199.344 51.6426 198.25 51.8246L171.651 56.2476C170.557 56.4283 169.435 56.1676 168.533 55.5225C167.63 54.8774 167.021 53.9006 166.838 52.8066Z" fill="#890AFF"/>
<path d="M168.973 65.6474C168.792 64.5529 169.053 63.4314 169.698 62.529C170.343 61.6265 171.32 61.0168 172.414 60.8337L199.012 56.4107C199.554 56.3205 200.109 56.3381 200.644 56.4622C201.179 56.5864 201.685 56.8147 202.132 57.1343C202.579 57.4538 202.958 57.8582 203.249 58.3245C203.54 58.7907 203.736 59.3097 203.826 59.8517C203.916 60.3937 203.899 60.9482 203.774 61.4834C203.65 62.0187 203.422 62.5242 203.102 62.9712C202.783 63.4182 202.378 63.7979 201.912 64.0886C201.446 64.3793 200.927 64.5752 200.385 64.6654L173.786 69.0884C172.692 69.2691 171.57 69.0084 170.668 68.3633C169.766 67.7182 169.156 66.7414 168.973 65.6474Z" fill="#890AFF"/>
<path d="M395.697 687.598L396.404 671.698C403.776 667.757 411.998 665.676 420.356 665.634C408.852 675.04 410.29 693.17 402.491 705.818C400.028 709.744 396.713 713.066 392.792 715.537C388.871 718.008 384.444 719.565 379.84 720.092L370.213 725.986C368.892 718.622 369.183 711.059 371.066 703.818C372.95 696.577 376.38 689.831 381.122 684.044C383.815 680.823 386.902 677.955 390.311 675.506C392.616 681.586 395.697 687.598 395.697 687.598Z" fill="#F2F2F2"/>
<path d="M523.339 727.701C523.34 727.905 523.3 728.107 523.222 728.296C523.144 728.485 523.03 728.656 522.886 728.8C522.741 728.945 522.57 729.059 522.381 729.137C522.192 729.215 521.99 729.255 521.786 729.254H103.736C103.324 729.254 102.929 729.09 102.638 728.799C102.346 728.508 102.183 728.113 102.183 727.701C102.183 727.289 102.346 726.894 102.638 726.602C102.929 726.311 103.324 726.147 103.736 726.147H521.786C521.99 726.147 522.192 726.187 522.381 726.264C522.57 726.342 522.741 726.457 522.886 726.601C523.03 726.745 523.144 726.917 523.222 727.106C523.3 727.294 523.34 727.497 523.339 727.701Z" fill="#CCCCCC"/>
<path d="M104.743 308.284C97.329 308.136 57.5035 306.993 50.9727 307.274C50.6033 305.981 38.2229 321.847 37.9218 321.945C37.7211 322.157 37.5747 322.414 37.495 322.695C37.4153 322.976 37.4047 323.271 37.4642 323.557C37.5236 323.843 37.6513 324.11 37.8363 324.335C38.0213 324.561 38.2581 324.738 38.5266 324.853C39.2544 325.295 103.458 324.107 104.236 324.262C104.573 324.257 104.901 324.156 105.183 323.973C105.465 323.789 105.689 323.529 105.83 323.224L106.259 322.263C106.304 320.618 106.842 312.215 106.359 310.778C106.477 310.508 106.527 310.213 106.503 309.919C106.48 309.626 106.384 309.342 106.223 309.095C106.063 308.848 105.844 308.644 105.586 308.503C105.327 308.361 105.038 308.286 104.743 308.284Z" fill="#3F3D56"/>
<path opacity="0.17" d="M106.259 322.261C105.882 323.167 105.4 324.304 104.236 324.263L39.2046 324.992C38.897 324.989 38.5955 324.906 38.329 324.753C38.0625 324.599 37.84 324.38 37.6828 324.115C37.5256 323.851 37.4391 323.551 37.4315 323.243C37.4238 322.936 37.4954 322.631 37.6393 322.359L106.259 322.261Z" fill="black"/>
<path d="M51.2767 307.08C50.5767 305.869 33.1905 219.841 31.7394 219.122L19.8691 204.601L18.8081 203.803C17.3328 202.993 13.7938 203.541 14.1125 205.794C16.9012 219.164 34.8381 295.312 35.2312 307.184L37.3903 322.309C37.4288 322.566 37.5209 322.812 37.6604 323.032C37.8 323.252 37.9841 323.44 38.2008 323.584C38.4174 323.728 38.6619 323.825 38.9184 323.869C39.1749 323.913 39.4378 323.902 39.69 323.839C40.3089 323.772 40.8998 323.545 41.4043 323.18C41.9089 322.816 42.3097 322.326 42.5674 321.759C42.7292 321.226 52.0894 307.39 51.2767 307.08Z" fill="#3F3D56"/>
<path opacity="0.17" d="M19.8662 204.601L42.5696 321.762C41.8103 323.684 38.2576 325.03 37.4301 322.51C37.4156 322.506 14.139 205.866 14.1153 205.796C13.8673 202.989 18.5058 202.9 19.8662 204.601Z" fill="black"/>
<path d="M20.55 209.392L32.0811 225.464L45.023 286.929L39.0061 292.177L20.55 209.392Z" fill="#890AFF"/>
<path d="M97.3005 316.572L100.491 316.702C100.54 315.767 100.695 314.841 100.951 313.942C101.431 311.662 101.861 308.952 99.8705 308.962C98.5205 308.832 98.0605 310.542 97.8205 312.402C97.7586 313.803 97.5847 315.198 97.3005 316.572Z" fill="#2F2E41"/>
<path d="M79.0005 312.281L81.1505 312.361L82.1905 312.401C82.1705 311.261 82.7005 308.911 81.4105 308.331C81.2053 308.243 80.9838 308.199 80.7605 308.202C79.5505 308.132 79.1905 309.051 79.0805 310.111C79.0105 310.751 79.0405 311.431 79.0205 311.961C79.0204 312.071 79.0105 312.181 79.0005 312.281Z" fill="#2F2E41"/>
<path d="M72.6304 312.022L74.7903 312.112L75.8204 312.152C75.8004 310.842 76.4903 307.981 74.3903 307.942C72.4503 307.832 72.7003 310.302 72.6503 311.702C72.6503 311.812 72.6403 311.921 72.6304 312.022Z" fill="#2F2E41"/>
<path d="M66.2605 311.772L68.4105 311.852L69.4505 311.892C69.4305 310.592 70.1205 307.732 68.0205 307.692C66.0805 307.572 66.3305 310.042 66.2805 311.452C66.2804 311.562 66.2704 311.672 66.2605 311.772Z" fill="#2F2E41"/>
<path d="M59.8904 311.512L62.0504 311.602L63.0804 311.642C63.0604 310.332 63.7504 307.482 61.6504 307.432C59.7104 307.322 59.9604 309.792 59.9104 311.192C59.9104 311.302 59.9004 311.412 59.8904 311.512Z" fill="#2F2E41"/>
<path d="M53.5205 311.262L55.6705 311.342L56.7105 311.382C56.6905 310.182 57.2705 307.672 55.7305 307.242H55.7205C55.5777 307.199 55.4294 307.179 55.2805 307.182C55.099 307.166 54.916 307.182 54.7405 307.232H54.7305C53.3905 307.582 53.5805 309.682 53.5405 310.942C53.5405 311.052 53.5305 311.162 53.5205 311.262Z" fill="#2F2E41"/>
<path d="M90.8704 310.581L94.0604 310.711C94.0604 310.591 94.0603 310.461 94.0703 310.311C94.1493 309.551 94.1627 308.784 94.1104 308.021C94.0004 307.181 93.6403 306.521 92.6303 306.501C91.6003 306.441 91.1903 307.101 91.0303 307.951C90.9932 308.096 90.9664 308.243 90.9503 308.391V308.401C90.8703 309.181 90.9204 310.021 90.8704 310.581Z" fill="#2F2E41"/>
<path d="M84.5005 310.322L87.6905 310.452C87.7582 309.594 87.7782 308.732 87.7505 307.872C87.6605 306.992 87.3105 306.272 86.2605 306.252C85.2004 306.182 84.7905 306.902 84.6305 307.792C84.4805 308.652 84.5605 309.682 84.5005 310.322Z" fill="#2F2E41"/>
<path d="M78.1304 310.072L79.0804 310.112L81.3204 310.202C81.3104 309.722 81.4003 309.022 81.4104 308.332C81.4189 308.125 81.4122 307.917 81.3904 307.712C81.3104 306.782 80.9804 306.012 79.8904 305.992C78.7804 305.932 78.3903 306.702 78.2504 307.642C78.1103 308.482 78.1904 309.452 78.1304 310.072Z" fill="#2F2E41"/>
<path d="M90.9304 316.322L94.1204 316.442C94.1104 315.142 94.7904 312.282 92.6904 312.242C90.5904 312.112 91.0504 315.012 90.9304 316.322Z" fill="#2F2E41"/>
<path d="M84.5605 316.062L87.7505 316.192C87.7405 314.882 88.4206 312.022 86.3206 311.982C84.2205 311.862 84.6805 314.762 84.5605 316.062Z" fill="#2F2E41"/>
<path d="M78.1904 315.811L81.3804 315.931C81.3704 315.001 81.7204 313.281 81.1504 312.361C81.0261 312.158 80.8488 311.991 80.6375 311.881C80.4262 311.77 80.1887 311.718 79.9504 311.731C79.623 311.697 79.2939 311.778 79.0204 311.961C78.0004 312.631 78.2904 314.751 78.1904 315.811Z" fill="#2F2E41"/>
<path d="M71.8206 315.552L75.0106 315.682C75.0006 314.752 75.3405 313.042 74.7906 312.112C74.6664 311.905 74.488 311.736 74.2747 311.623C74.0615 311.51 73.8214 311.458 73.5806 311.472C73.2531 311.436 72.9235 311.517 72.6505 311.702C71.6305 312.392 71.9205 314.502 71.8206 315.552Z" fill="#2F2E41"/>
<path d="M65.4504 315.302L68.6404 315.422C68.6304 314.492 68.9804 312.772 68.4104 311.852C68.2861 311.648 68.1088 311.482 67.8975 311.371C67.6862 311.26 67.4487 311.208 67.2104 311.222C66.883 311.187 66.5539 311.268 66.2804 311.452C65.2605 312.122 65.5505 314.242 65.4504 315.302Z" fill="#2F2E41"/>
<path d="M59.0803 315.041L62.2703 315.171C62.2603 314.241 62.6003 312.531 62.0503 311.601C61.927 311.394 61.7489 311.224 61.5354 311.111C61.3219 310.998 61.0814 310.946 60.8403 310.961C60.5129 310.925 60.1832 311.007 59.9103 311.191C58.8903 311.881 59.1804 313.991 59.0803 315.041Z" fill="#2F2E41"/>
<path d="M52.7104 314.791L55.9005 314.911C55.8905 313.981 56.2304 312.271 55.6704 311.341C55.547 311.137 55.3699 310.97 55.1584 310.859C54.9468 310.748 54.7089 310.697 54.4704 310.711C54.1431 310.677 53.8139 310.758 53.5404 310.941C52.5204 311.621 52.8105 313.731 52.7104 314.791Z" fill="#2F2E41"/>
</g>
<defs>
<clipPath id="clip0_6120_89">
<rect width="666.741" height="729.254" fill="white"/>
</clipPath>
</defs>
</svg>
