<svg width="984" height="587" viewBox="0 0 984 587" fill="none" xmlns="http://www.w3.org/2000/svg">
<g clip-path="url(#clip0_6120_245)">
<path d="M819.238 581.797C810.246 574.198 804.783 562.195 806.216 550.509C807.648 538.823 816.521 528.081 828.029 525.599C839.538 523.118 852.657 529.987 856.152 541.229C858.076 519.555 860.293 496.972 871.816 478.514C882.251 461.801 900.323 449.842 919.91 447.703C939.496 445.563 960.118 453.644 972.333 469.103C984.548 484.562 987.539 507.037 978.984 524.785C972.682 537.86 961.07 547.59 948.905 555.507C909.593 580.871 862.444 591.186 816.133 584.553" fill="#F2F2F2"/>
<path d="M952.964 454.092C936.803 467.255 921.977 481.978 908.7 498.046C887.922 523.107 871.109 551.204 858.845 581.36C857.947 583.56 861.519 584.517 862.407 582.342C882.473 533.333 914.506 490.137 955.577 456.704C957.421 455.202 954.794 452.602 952.964 454.092Z" fill="white"/>
<path d="M483.5 37.5C483.499 37.765 483.394 38.0188 483.206 38.2062C483.019 38.3936 482.765 38.4992 482.5 38.5H482.02C481.28 37.86 480.56 37.19 479.86 36.5H482.5C482.765 36.5008 483.019 36.6064 483.206 36.7938C483.394 36.9811 483.499 37.235 483.5 37.5Z" fill="#F2F2F2"/>
<path d="M507.5 0.5H256.5C254.644 0.502062 252.865 1.24021 251.553 2.55252C250.24 3.86483 249.502 5.64412 249.5 7.5V143.5C249.502 145.356 250.24 147.135 251.553 148.447C252.865 149.76 254.644 150.498 256.5 150.5H507.5C509.356 150.498 511.135 149.76 512.447 148.447C513.76 147.135 514.498 145.356 514.5 143.5V7.5C514.498 5.64412 513.76 3.86483 512.447 2.55252C511.135 1.24021 509.356 0.502062 507.5 0.5ZM512.5 143.5C512.499 144.826 511.973 146.097 511.035 147.035C510.097 147.972 508.826 148.499 507.5 148.5H256.5C255.174 148.499 253.903 147.972 252.965 147.035C252.027 146.097 251.501 144.826 251.5 143.5V7.5C251.501 6.17408 252.027 4.90261 252.965 3.96504C253.903 3.02748 255.174 2.50053 256.5 2.5H507.5C508.826 2.50053 510.097 3.02748 511.035 3.96504C511.973 4.90261 512.499 6.17408 512.5 7.5V143.5Z" fill="#3F3D56"/>
<path d="M355.22 59.6599C352.23 52.4799 347.58 46.4999 340.82 42.5399C333.73 38.3699 325.62 34.8999 317.46 33.6499C309.292 32.4423 300.963 32.9084 292.98 35.0199C291.94 35.2899 290.86 35.5799 289.78 35.8999C286.972 36.6248 284.303 37.8073 281.88 39.3999C281.8 39.4499 281.72 39.4999 281.64 39.5599C278.54 41.8399 276.42 45.5999 274.68 48.9699C273.03 52.1999 271.99 55.7599 272.89 59.3699C273.866 62.6629 275.897 65.544 278.67 67.5699C280.6 69.0899 283.13 71.0099 285.71 71.0499C286.32 71.0635 286.927 70.9617 287.5 70.7499C287.679 70.6869 287.85 70.603 288.01 70.4999C289.05 70.8121 290.125 70.9902 291.21 71.0299C295.6 71.2299 299.99 69.3699 304.5 67.8499C305.557 67.481 306.64 67.1903 307.74 66.9799C309.709 66.5513 311.754 66.62 313.69 67.1799C314.047 67.2809 314.398 67.4045 314.74 67.5499C318.081 69.1165 320.9 71.6128 322.86 74.7399C324.77 77.5799 326.03 80.8099 328.13 83.5399C329.172 84.9468 330.499 86.119 332.024 86.9803C333.548 87.8417 335.237 88.373 336.98 88.5399C342.22 89.1199 348.8 88.8399 353.31 85.6899C354.534 84.8539 355.584 83.7873 356.4 82.5499C356.48 82.4299 356.56 82.3099 356.63 82.1899C360.78 75.3599 358.06 66.4499 355.22 59.6599ZM286.13 49.1699C287.13 49.2799 288.14 49.3999 289.14 49.5099C287.227 49.8515 285.438 50.6894 283.95 51.9399C283.385 52.4198 282.86 52.9448 282.38 53.5099C282.4 53.4699 282.4 53.4199 282.42 53.3799C282.713 52.4595 283.194 51.6101 283.833 50.8854C284.472 50.1607 285.254 49.5765 286.13 49.1699ZM346.42 74.5699C346.6 74.5299 346.79 74.4999 346.97 74.4699C347.258 74.425 347.531 74.3156 347.77 74.1499C347.77 74.1799 347.78 74.2199 347.78 74.2499C347.782 74.3837 347.792 74.5173 347.81 74.6499C347.76 74.7299 347.72 74.8099 347.67 74.8899C347.25 74.7799 346.84 74.6699 346.42 74.5699ZM343.63 50.2499C345.844 52.3408 347.729 54.7548 349.22 57.4099C347.455 55.2534 345.504 53.2557 343.39 51.4399C343.549 51.0633 343.631 50.6586 343.63 50.2499ZM341.2 78.6199C341.114 78.7662 341.05 78.9246 341.01 79.0899C340.74 79.0999 340.46 79.1099 340.18 79.1099H340.04C340.03 79.0699 340.01 79.0199 340 78.9799C339.94 78.7999 339.89 78.6199 339.83 78.4399C340.29 78.4999 340.74 78.5599 341.2 78.6199ZM319.82 56.1899C319.847 55.9877 319.853 55.7834 319.84 55.5799C320.06 55.746 320.318 55.8558 320.59 55.8999C320.62 55.9099 320.66 55.9099 320.69 55.9199C320.88 56.0299 321.06 56.1299 321.25 56.2399L321.19 56.3299C320.73 56.2799 320.27 56.2399 319.82 56.1899ZM335.66 51.2099H335.63C334.97 50.7999 334.31 50.3899 333.64 49.9999C334.32 50.3799 335 50.7898 335.66 51.2099ZM331.98 69.9499C331.877 70.0534 331.789 70.1713 331.72 70.2999C331.67 70.2299 331.63 70.1699 331.58 70.0999C331.706 70.0318 331.84 69.9813 331.98 69.9499ZM323.02 50.3599C322.798 50.1834 322.552 50.0387 322.29 49.9299C321.002 49.433 319.682 49.022 318.34 48.6999C318.14 48.5099 317.94 48.3199 317.75 48.1199C318.885 48.3396 320.007 48.6233 321.11 48.9699C322.523 49.423 323.908 49.9572 325.26 50.5699C324.51 50.4899 323.77 50.4199 323.02 50.3599ZM315.4 37.8199C318.277 38.204 321.113 38.8534 323.87 39.7599C323.59 39.6899 323.31 39.6299 323.03 39.5599C320.38 38.9599 317.68 38.3199 314.96 37.7699C315.11 37.7899 315.25 37.7999 315.4 37.8199Z" fill="#CCCCCC"/>
<path d="M326.173 115.476C323.65 115.406 320.511 115.318 318.094 113.552C317.374 113.005 316.783 112.306 316.361 111.506C315.939 110.706 315.698 109.823 315.653 108.92C315.609 108.278 315.715 107.634 315.961 107.04C316.207 106.445 316.588 105.916 317.072 105.493C317.793 104.955 318.636 104.606 319.526 104.478C320.416 104.35 321.324 104.446 322.167 104.759L320.108 89.7115L321.619 89.5044L324.04 107.195L322.778 106.616C321.314 105.944 319.306 105.603 318.057 106.658C317.751 106.933 317.512 107.276 317.359 107.659C317.207 108.042 317.145 108.455 317.178 108.866C317.215 109.538 317.396 110.195 317.71 110.791C318.023 111.387 318.461 111.908 318.994 112.32C320.875 113.694 323.377 113.872 326.215 113.951L326.173 115.476Z" fill="#3F3D56"/>
<path d="M312.633 91.0093H304.416V92.5349H312.633V91.0093Z" fill="#3F3D56"/>
<path d="M338.569 91.0093H330.352V92.5349H338.569V91.0093Z" fill="#3F3D56"/>
<path d="M290.14 69.9415C283.523 69.187 278.398 62.847 277.835 56.4142C277.166 48.7614 281.622 41.493 287.737 37.1986C294.131 32.7076 302.098 30.8321 309.806 30.4193C324.842 29.671 339.619 34.5418 351.264 44.0844C357.04 48.8814 362.434 54.992 364.478 62.3728C366.254 68.7828 364.809 76.0444 359.654 80.5338C358.378 81.6339 356.889 82.4578 355.279 82.9534C353.67 83.449 351.975 83.6056 350.301 83.4133C346.301 82.9979 342.61 80.8946 339.415 78.5716C333.201 74.0531 328.099 67.7583 320.527 65.397C314.976 63.6656 307.771 65.1896 304.379 70.2101C303.609 71.3593 303.11 72.6684 302.92 74.0385C302.85 74.3307 302.893 74.6387 303.041 74.9C303.19 75.1613 303.432 75.3565 303.719 75.446C304.011 75.5249 304.323 75.4852 304.587 75.3355C304.85 75.1859 305.044 74.9385 305.126 74.6469C306.017 68.3234 313.792 65.9639 319.248 67.408C327.204 69.5135 332.544 76.6124 339.071 81.1226C342.449 83.6418 346.43 85.2305 350.614 85.7301C354.243 86.0148 357.844 84.9086 360.686 82.636C366.262 78.233 368.395 70.66 367.162 63.8417C365.734 55.9461 360.42 49.1791 354.589 43.94C342.768 33.4311 327.422 27.7619 311.608 28.0621C303.542 28.2474 295.126 29.9125 288.177 34.1756C281.437 38.3109 276.227 45.2291 275.546 53.2708C274.947 60.3491 278.745 67.7526 285.264 70.8536C286.801 71.5817 288.449 72.0469 290.14 72.23C291.601 72.3966 291.589 70.1068 290.14 69.9415Z" fill="#3F3D56"/>
<path d="M483.5 37.5C483.499 37.765 483.394 38.0188 483.206 38.2062C483.019 38.3936 482.765 38.4992 482.5 38.5H400.5C400.235 38.5 399.98 38.3946 399.793 38.2071C399.605 38.0196 399.5 37.7652 399.5 37.5C399.5 37.2348 399.605 36.9804 399.793 36.7929C399.98 36.6054 400.235 36.5 400.5 36.5H482.5C482.765 36.5008 483.019 36.6064 483.206 36.7938C483.394 36.9811 483.499 37.235 483.5 37.5Z" fill="#3F3D56"/>
<path d="M482.5 53.5H400.5C400.235 53.5 399.98 53.3946 399.793 53.2071C399.605 53.0196 399.5 52.7652 399.5 52.5C399.5 52.2348 399.605 51.9804 399.793 51.7929C399.98 51.6054 400.235 51.5 400.5 51.5H482.5C482.765 51.5 483.02 51.6054 483.207 51.7929C483.395 51.9804 483.5 52.2348 483.5 52.5C483.5 52.7652 483.395 53.0196 483.207 53.2071C483.02 53.3946 482.765 53.5 482.5 53.5Z" fill="#3F3D56"/>
<path d="M482.5 68.5H400.5C400.235 68.5 399.98 68.3946 399.793 68.2071C399.605 68.0196 399.5 67.7652 399.5 67.5C399.5 67.2348 399.605 66.9804 399.793 66.7929C399.98 66.6054 400.235 66.5 400.5 66.5H482.5C482.765 66.5 483.02 66.6054 483.207 66.7929C483.395 66.9804 483.5 67.2348 483.5 67.5C483.5 67.7652 483.395 68.0196 483.207 68.2071C483.02 68.3946 482.765 68.5 482.5 68.5Z" fill="#3F3D56"/>
<path d="M482.5 83.5H400.5C400.235 83.5 399.98 83.3946 399.793 83.2071C399.605 83.0196 399.5 82.7652 399.5 82.5C399.5 82.2348 399.605 81.9804 399.793 81.7929C399.98 81.6054 400.235 81.5 400.5 81.5H482.5C482.765 81.5 483.02 81.6054 483.207 81.7929C483.395 81.9804 483.5 82.2348 483.5 82.5C483.5 82.7652 483.395 83.0196 483.207 83.2071C483.02 83.3946 482.765 83.5 482.5 83.5Z" fill="#3F3D56"/>
<path d="M482.5 98.5H400.5C400.235 98.5 399.98 98.3946 399.793 98.2071C399.605 98.0196 399.5 97.7652 399.5 97.5C399.5 97.2348 399.605 96.9804 399.793 96.7929C399.98 96.6054 400.235 96.5 400.5 96.5H482.5C482.765 96.5 483.02 96.6054 483.207 96.7929C483.395 96.9804 483.5 97.2348 483.5 97.5C483.5 97.7652 483.395 98.0196 483.207 98.2071C483.02 98.3946 482.765 98.5 482.5 98.5Z" fill="#3F3D56"/>
<path d="M482.5 113.5H400.5C400.235 113.5 399.98 113.395 399.793 113.207C399.605 113.02 399.5 112.765 399.5 112.5C399.5 112.235 399.605 111.98 399.793 111.793C399.98 111.605 400.235 111.5 400.5 111.5H482.5C482.765 111.5 483.02 111.605 483.207 111.793C483.395 111.98 483.5 112.235 483.5 112.5C483.5 112.765 483.395 113.02 483.207 113.207C483.02 113.395 482.765 113.5 482.5 113.5Z" fill="#3F3D56"/>
<path d="M186.131 247.055C183.344 247.063 180.653 246.036 178.58 244.174C177.42 243.139 176.483 241.878 175.828 240.468C175.173 239.058 174.812 237.529 174.769 235.975L130.393 203.701C129.054 202.728 127.942 201.475 127.134 200.03C126.325 198.586 125.839 196.983 125.71 195.332C125.58 193.682 125.81 192.023 126.383 190.47C126.957 188.916 127.86 187.506 129.03 186.335L162.069 153.297C163.43 151.936 165.164 151.008 167.053 150.633C168.941 150.257 170.898 150.45 172.677 151.187C174.456 151.924 175.976 153.171 177.046 154.772C178.115 156.373 178.686 158.255 178.686 160.18C178.416 165.231 176.426 170.037 173.045 173.799L150.613 196.232L185.821 224.297C185.93 224.289 186.038 224.283 186.148 224.283C189.055 224.283 191.852 225.395 193.966 227.39C196.08 229.386 197.35 232.115 197.517 235.017C197.684 237.919 196.734 240.775 194.863 243C192.992 245.224 190.341 246.649 187.453 246.982C187.014 247.031 186.572 247.055 186.131 247.055Z" fill="#FFB8B8"/>
<path d="M238.863 437.683L250.77 433.238L239.291 385.195L221.717 391.756L238.863 437.683Z" fill="#FFB8B8"/>
<path d="M277.861 435.722L240.439 449.692L235.041 435.234L258.517 426.47C262.216 425.089 266.312 425.234 269.904 426.873C273.496 428.512 276.289 431.511 277.67 435.21L277.861 435.722Z" fill="#2F2E41"/>
<path d="M131.741 439.863H144.451L150.497 390.839L131.739 390.84L131.741 439.863Z" fill="#FFB8B8"/>
<path d="M168.963 451.664L129.018 451.665L129.017 436.232L154.075 436.231C158.024 436.231 161.81 437.799 164.602 440.591C167.394 443.382 168.963 447.169 168.963 451.117L168.963 451.664Z" fill="#2F2E41"/>
<path d="M145.459 426.486C145.316 426.486 145.173 426.479 145.029 426.466L131.557 425.182C130.464 425.078 129.447 424.578 128.697 423.776C127.947 422.975 127.516 421.927 127.485 420.829C126.707 391.653 124.749 244.4 162.642 210.656C163.299 210.078 164.114 209.71 164.981 209.599C171.845 208.658 195.001 206.35 204.803 216.209C205.425 216.83 205.856 217.616 206.044 218.474L248.952 416.862C249.084 417.472 249.088 418.104 248.963 418.715C248.837 419.327 248.586 419.906 248.225 420.416C247.864 420.925 247.4 421.354 246.865 421.675C246.329 421.995 245.732 422.201 245.112 422.279L228.661 424.335C228.067 424.41 227.464 424.365 226.887 424.204C226.31 424.043 225.772 423.768 225.303 423.395C224.834 423.023 224.444 422.56 224.156 422.035C223.868 421.51 223.689 420.933 223.627 420.337C221.99 404.39 212.154 323.387 179.192 294.674C178.745 294.282 178.208 294.008 177.628 293.878C177.049 293.748 176.446 293.765 175.875 293.928C175.316 294.084 174.805 294.379 174.392 294.786C173.978 295.193 173.675 295.699 173.511 296.256C167.409 316.222 147.675 384.277 149.943 421.717C149.981 422.329 149.893 422.943 149.685 423.519C149.476 424.096 149.152 424.624 148.732 425.071C148.312 425.518 147.805 425.874 147.242 426.117C146.679 426.361 146.072 426.486 145.459 426.486Z" fill="#2F2E41"/>
<path d="M171.388 129.482C184.953 129.482 195.949 118.486 195.949 104.921C195.949 91.3562 184.953 80.3599 171.388 80.3599C157.823 80.3599 146.827 91.3562 146.827 104.921C146.827 118.486 157.823 129.482 171.388 129.482Z" fill="#FFB8B8"/>
<path d="M147.272 151.177C147.272 151.177 170.079 124.222 188.74 145.993C200.747 160.001 207.097 177.984 206.55 196.425L205.846 220.118L162.822 213.379L147.272 151.177Z" fill="#890AFF"/>
<path d="M207.208 203.406C207.029 203.406 206.85 203.402 206.671 203.395C204.832 203.319 203.033 202.845 201.396 202.005C199.759 201.166 198.324 199.981 197.189 198.533L169.274 162.94C168.085 161.425 167.373 159.592 167.227 157.672C167.081 155.752 167.507 153.832 168.452 152.155C169.397 150.477 170.818 149.118 172.535 148.248C174.253 147.378 176.19 147.037 178.101 147.268L182.031 147.743C184.541 148.183 186.825 149.47 188.502 151.388L210.523 179.465L242.61 147.879C242.616 147.771 242.623 147.662 242.637 147.553C242.905 145.33 243.822 143.236 245.275 141.532C246.727 139.827 248.65 138.589 250.802 137.972C252.954 137.355 255.241 137.386 257.375 138.061C259.51 138.737 261.398 140.026 262.804 141.769C264.209 143.512 265.07 145.631 265.278 147.86C265.485 150.09 265.031 152.331 263.972 154.303C262.913 156.276 261.296 157.893 259.322 158.951C257.349 160.009 255.108 160.462 252.879 160.253L216.526 199.345C215.336 200.627 213.894 201.649 212.291 202.348C210.687 203.046 208.957 203.407 207.208 203.406Z" fill="#FFB8B8"/>
<path d="M175.37 109.17L185.922 96.7382C188.641 93.5344 191.486 90.0448 191.87 85.8601C192.292 81.2729 189.502 76.814 185.687 74.2313C181.873 71.6487 177.189 70.6768 172.596 70.3202C164.078 69.6588 155.114 71.0665 148.112 75.9616C141.109 80.8568 136.528 89.6943 138.235 98.0658C139.58 104.657 144.534 110.972 142.608 117.418C140.501 124.471 131.862 126.635 124.808 128.738C112.967 132.268 101.661 139.218 95.4559 149.902C89.2507 160.587 89.2778 175.319 97.5495 184.497C102.906 190.44 110.984 193.446 118.972 193.898C126.959 194.35 134.91 192.469 142.485 189.896C149.462 187.526 156.363 184.478 161.856 179.566C167.348 174.655 171.305 167.627 171.134 160.261C170.971 153.241 167.21 146.846 165.665 139.997C164.447 134.261 164.767 128.305 166.592 122.732C168.418 117.16 171.684 112.17 176.061 108.267" fill="#2F2E41"/>
<path d="M687.5 357.5H436.5C434.644 357.498 432.865 356.76 431.553 355.447C430.24 354.135 429.502 352.356 429.5 350.5V214.5C429.502 212.644 430.24 210.865 431.553 209.553C432.865 208.24 434.644 207.502 436.5 207.5H687.5C689.356 207.502 691.135 208.24 692.447 209.553C693.76 210.865 694.498 212.644 694.5 214.5V350.5C694.498 352.356 693.76 354.135 692.447 355.447C691.135 356.76 689.356 357.498 687.5 357.5ZM436.5 209.5C435.174 209.502 433.904 210.029 432.966 210.966C432.029 211.904 431.502 213.174 431.5 214.5V350.5C431.502 351.826 432.029 353.096 432.966 354.034C433.904 354.971 435.174 355.498 436.5 355.5H687.5C688.826 355.498 690.096 354.971 691.034 354.034C691.971 353.096 692.498 351.826 692.5 350.5V214.5C692.498 213.174 691.971 211.904 691.034 210.966C690.096 210.029 688.826 209.502 687.5 209.5H436.5Z" fill="#3F3D56"/>
<path d="M535.224 266.657C532.229 259.485 527.576 253.502 520.821 249.537C513.725 245.371 505.625 241.902 497.464 240.65C489.294 239.443 480.965 239.91 472.981 242.021C469.132 243.018 464.89 244.175 461.644 246.562C458.541 248.843 456.415 252.596 454.685 255.968C453.027 259.198 451.993 262.755 452.891 266.373C453.866 269.667 455.899 272.548 458.674 274.572C461.037 276.439 464.341 278.909 467.501 277.753C467.68 277.687 467.851 277.601 468.011 277.495C473.468 279.156 478.894 276.741 484.495 274.85C487.9 273.701 491.323 273.12 494.742 274.554C498.083 276.118 500.902 278.611 502.862 281.736C504.774 284.582 506.033 287.814 508.13 290.542C509.173 291.947 510.5 293.117 512.023 293.977C513.547 294.838 515.234 295.369 516.976 295.537C523.744 296.294 532.728 295.597 536.627 289.188C540.783 282.359 538.064 273.454 535.224 266.657ZM466.131 256.168C467.135 256.282 468.139 256.396 469.143 256.51C467.23 256.854 465.441 257.693 463.952 258.943C463.386 259.421 462.861 259.946 462.383 260.511C462.397 260.465 462.405 260.422 462.42 260.375C462.715 259.456 463.197 258.608 463.836 257.884C464.474 257.16 465.256 256.576 466.131 256.168ZM499.835 262.579C500.058 262.747 500.318 262.857 500.593 262.902C500.625 262.908 500.657 262.914 500.689 262.919C500.876 263.026 501.063 263.132 501.25 263.237C501.229 263.267 501.213 263.3 501.193 263.33C500.734 263.282 500.275 263.237 499.816 263.191C499.848 262.989 499.855 262.783 499.835 262.579ZM511.985 276.946C511.883 277.053 511.794 277.171 511.718 277.298C511.673 277.233 511.628 277.168 511.583 277.102C511.707 277.029 511.843 276.976 511.985 276.946ZM519.831 285.438C520.286 285.498 520.741 285.558 521.196 285.618C521.111 285.765 521.049 285.925 521.011 286.091C520.689 286.101 520.363 286.107 520.038 286.108L519.831 285.438ZM526.421 281.566L526.97 281.471C527.258 281.425 527.532 281.316 527.773 281.152C527.774 281.185 527.777 281.217 527.778 281.249C527.782 281.359 527.792 281.496 527.806 281.652C527.761 281.73 527.716 281.808 527.668 281.886C527.252 281.779 526.837 281.672 526.421 281.566ZM503.02 257.365C502.801 257.183 502.554 257.037 502.289 256.935C501 256.437 499.68 256.024 498.338 255.699C498.137 255.51 497.94 255.316 497.749 255.117C498.882 255.341 500.003 255.626 501.106 255.971C502.52 256.425 503.907 256.958 505.26 257.569C504.512 257.486 503.766 257.418 503.02 257.365ZM515.626 258.209C514.968 257.798 514.306 257.395 513.64 256.999C514.323 257.383 514.996 257.787 515.659 258.209L515.626 258.209ZM529.218 264.413C527.454 262.255 525.503 260.257 523.388 258.441C523.551 258.066 523.633 257.661 523.629 257.252C525.845 259.341 527.729 261.755 529.218 264.413ZM503.869 246.755C503.59 246.691 503.311 246.626 503.032 246.563C500.382 245.965 497.683 245.32 494.959 244.774C495.105 244.791 495.251 244.805 495.397 244.823C498.275 245.204 501.111 245.851 503.869 246.755Z" fill="#890AFF"/>
<path d="M506.172 322.476C503.65 322.406 500.511 322.318 498.094 320.552C497.374 320.005 496.783 319.306 496.361 318.506C495.939 317.706 495.698 316.823 495.653 315.92C495.609 315.278 495.715 314.634 495.961 314.04C496.207 313.445 496.588 312.916 497.072 312.493C497.793 311.955 498.636 311.606 499.526 311.478C500.416 311.35 501.324 311.446 502.167 311.759L500.108 296.712L501.619 296.504L504.04 314.195L502.778 313.616C501.314 312.944 499.306 312.603 498.057 313.658C497.751 313.933 497.512 314.276 497.359 314.659C497.207 315.042 497.145 315.455 497.178 315.866C497.215 316.538 497.396 317.195 497.71 317.791C498.023 318.387 498.461 318.908 498.994 319.32C500.875 320.695 503.377 320.872 506.215 320.952L506.172 322.476Z" fill="#3F3D56"/>
<path d="M492.633 298.009H484.416V299.535H492.633V298.009Z" fill="#3F3D56"/>
<path d="M518.569 298.009H510.352V299.535H518.569V298.009Z" fill="#3F3D56"/>
<path d="M470.14 276.942C463.523 276.187 458.398 269.847 457.835 263.414C457.166 255.761 461.622 248.493 467.737 244.199C474.131 239.708 482.098 237.832 489.806 237.419C504.842 236.671 519.619 241.542 531.264 251.084C537.04 255.881 542.434 261.992 544.478 269.373C546.254 275.783 544.809 283.044 539.654 287.534C538.378 288.634 536.889 289.458 535.279 289.953C533.67 290.449 531.975 290.606 530.301 290.413C526.301 289.998 522.61 287.895 519.415 285.572C513.201 281.053 508.099 274.758 500.527 272.397C494.976 270.666 487.771 272.19 484.379 277.21C483.609 278.359 483.11 279.668 482.92 281.039C482.85 281.331 482.893 281.639 483.041 281.9C483.19 282.161 483.432 282.357 483.719 282.446C484.011 282.525 484.323 282.485 484.587 282.336C484.85 282.186 485.044 281.938 485.126 281.647C486.017 275.323 493.792 272.964 499.248 274.408C507.204 276.513 512.544 283.612 519.071 288.123C522.449 290.642 526.43 292.23 530.614 292.73C534.243 293.015 537.844 291.909 540.686 289.636C546.262 285.233 548.395 277.66 547.162 270.842C545.734 262.946 540.42 256.179 534.589 250.94C522.768 240.431 507.422 234.762 491.608 235.062C483.542 235.247 475.126 236.912 468.177 241.176C461.437 245.311 456.227 252.229 455.546 260.271C454.947 267.349 458.745 274.753 465.264 277.854C466.801 278.582 468.449 279.047 470.14 279.23C471.601 279.397 471.589 277.107 470.14 276.942Z" fill="#3F3D56"/>
<path d="M662.5 245.5H580.5C580.235 245.5 579.98 245.395 579.793 245.207C579.605 245.02 579.5 244.765 579.5 244.5C579.5 244.235 579.605 243.98 579.793 243.793C579.98 243.605 580.235 243.5 580.5 243.5H662.5C662.765 243.5 663.02 243.605 663.207 243.793C663.395 243.98 663.5 244.235 663.5 244.5C663.5 244.765 663.395 245.02 663.207 245.207C663.02 245.395 662.765 245.5 662.5 245.5Z" fill="#3F3D56"/>
<path d="M662.5 260.5H580.5C580.235 260.5 579.98 260.395 579.793 260.207C579.605 260.02 579.5 259.765 579.5 259.5C579.5 259.235 579.605 258.98 579.793 258.793C579.98 258.605 580.235 258.5 580.5 258.5H662.5C662.765 258.5 663.02 258.605 663.207 258.793C663.395 258.98 663.5 259.235 663.5 259.5C663.5 259.765 663.395 260.02 663.207 260.207C663.02 260.395 662.765 260.5 662.5 260.5Z" fill="#3F3D56"/>
<path d="M662.5 275.5H580.5C580.235 275.5 579.98 275.395 579.793 275.207C579.605 275.02 579.5 274.765 579.5 274.5C579.5 274.235 579.605 273.98 579.793 273.793C579.98 273.605 580.235 273.5 580.5 273.5H662.5C662.765 273.5 663.02 273.605 663.207 273.793C663.395 273.98 663.5 274.235 663.5 274.5C663.5 274.765 663.395 275.02 663.207 275.207C663.02 275.395 662.765 275.5 662.5 275.5Z" fill="#3F3D56"/>
<path d="M662.5 290.5H580.5C580.235 290.5 579.98 290.395 579.793 290.207C579.605 290.02 579.5 289.765 579.5 289.5C579.5 289.235 579.605 288.98 579.793 288.793C579.98 288.605 580.235 288.5 580.5 288.5H662.5C662.765 288.5 663.02 288.605 663.207 288.793C663.395 288.98 663.5 289.235 663.5 289.5C663.5 289.765 663.395 290.02 663.207 290.207C663.02 290.395 662.765 290.5 662.5 290.5Z" fill="#3F3D56"/>
<path d="M662.5 305.5H580.5C580.235 305.5 579.98 305.395 579.793 305.207C579.605 305.02 579.5 304.765 579.5 304.5C579.5 304.235 579.605 303.98 579.793 303.793C579.98 303.605 580.235 303.5 580.5 303.5H662.5C662.765 303.5 663.02 303.605 663.207 303.793C663.395 303.98 663.5 304.235 663.5 304.5C663.5 304.765 663.395 305.02 663.207 305.207C663.02 305.395 662.765 305.5 662.5 305.5Z" fill="#3F3D56"/>
<path d="M662.5 320.5H580.5C580.235 320.5 579.98 320.395 579.793 320.207C579.605 320.02 579.5 319.765 579.5 319.5C579.5 319.235 579.605 318.98 579.793 318.793C579.98 318.605 580.235 318.5 580.5 318.5H662.5C662.765 318.5 663.02 318.605 663.207 318.793C663.395 318.98 663.5 319.235 663.5 319.5C663.5 319.765 663.395 320.02 663.207 320.207C663.02 320.395 662.765 320.5 662.5 320.5Z" fill="#3F3D56"/>
<path d="M815.686 212.175C830.177 212.175 841.924 200.428 841.924 185.937C841.924 171.445 830.177 159.698 815.686 159.698C801.194 159.698 789.447 171.445 789.447 185.937C789.447 200.428 801.194 212.175 815.686 212.175Z" fill="#FFB8B8"/>
<path d="M737.487 572.521L725.009 568.544L734.412 518.519L752.829 524.389L737.487 572.521Z" fill="#FFB8B8"/>
<path d="M716.666 561.952L741.298 569.803L736.469 584.956L697.25 572.455L697.431 571.889C698.041 569.973 699.023 568.197 700.32 566.661C701.617 565.125 703.204 563.859 704.99 562.937C706.776 562.014 708.727 561.452 710.73 561.283C712.733 561.114 714.75 561.341 716.666 561.952Z" fill="#2F2E41"/>
<path d="M828.277 572.262H815.179L808.946 521.744H828.277V572.262Z" fill="#FFB8B8"/>
<path d="M805.229 568.52H831.083V584.424H789.92V583.829C789.92 581.819 790.316 579.828 791.086 577.971C791.855 576.113 792.983 574.426 794.404 573.004C795.826 571.582 797.514 570.455 799.371 569.685C801.228 568.916 803.219 568.52 805.229 568.52Z" fill="#2F2E41"/>
<path d="M827.893 555.868L823.473 555.208C810.066 553.211 809.263 553.091 807.134 552.157C806.048 551.679 805.971 544.463 806.624 503.901C807.103 474.126 807.699 437.071 806.541 417.178C806.494 416.393 806.183 415.647 805.659 415.061C805.136 414.474 804.43 414.081 803.655 413.944C802.881 413.808 802.083 413.936 801.391 414.309C800.698 414.681 800.151 415.276 799.838 415.998C789.863 439.035 773.126 490.588 762.051 524.702C758.199 536.568 755.156 545.941 753.231 551.559C752.859 552.622 752.105 553.507 751.115 554.043C750.125 554.579 748.97 554.727 747.877 554.457C738.763 552.179 739.373 551.21 726.392 547.853C725.269 547.566 724.3 546.856 723.688 545.872C723.077 544.888 722.869 543.705 723.11 542.571C725.458 531.499 768.425 351.971 771.713 334.905C771.825 334.321 772.051 333.765 772.378 333.269C772.706 332.772 773.128 332.346 773.621 332.014C774.115 331.681 774.669 331.45 775.252 331.334C775.835 331.217 776.435 331.217 777.019 331.334C786.692 333.283 792.578 335.351 802.137 337.35C812.453 339.508 823.12 341.739 833.524 343.822C834.559 344.03 835.487 344.599 836.143 345.427C838.717 348.679 842.535 350.504 846.577 352.436C849.301 353.739 843.127 353.621 845.5 355.5C855.11 363.107 841.29 517.588 832.94 552.478C832.672 553.57 832.007 554.523 831.073 555.15C830.139 555.777 829.006 556.033 827.893 555.868Z" fill="#2F2E41"/>
<path d="M819.984 380.78C819.686 379.424 819.689 378.019 819.992 376.664C820.296 375.309 820.892 374.037 821.741 372.938C822.589 371.839 823.668 370.939 824.901 370.302C826.135 369.664 827.493 369.305 828.88 369.25L850.088 345.312L863.258 361.223L838.869 379.04C838.807 381.376 837.891 383.61 836.293 385.316C834.695 387.022 832.527 388.083 830.199 388.298C827.872 388.512 825.546 387.865 823.663 386.48C821.781 385.094 820.471 383.066 819.984 380.78Z" fill="#FFB8B8"/>
<path d="M826.87 208.896C825.338 202.396 833.082 188.41 831.55 181.91C830.512 177.508 820.161 180.5 817.746 176.677C815.33 172.853 811.284 169.756 806.761 169.705C801.563 169.647 796.449 173.503 791.525 171.836C786.546 170.151 784.955 163.333 787.156 158.56C789.357 153.787 794.099 150.746 798.783 148.362C806.761 144.304 816.05 141.34 824.588 144.025C829.749 145.649 834.065 149.166 838.241 152.606C842.048 155.741 845.919 158.948 848.58 163.101C853.794 171.236 853.479 182.196 849.024 190.77C844.569 199.343 836.45 205.635 827.505 209.287" fill="#2F2E41"/>
<path d="M762.441 360.163C765.273 355.432 769.573 333.265 774.875 296.059C778.485 270.66 781.63 244.853 783.191 231.671C783.312 230.604 783.702 229.585 784.325 228.71C784.947 227.835 785.782 227.133 786.75 226.669C787.763 226.18 788.77 225.718 789.77 225.282C802.693 219.66 815.79 217.798 828.694 219.745C841.579 221.724 853.665 227.231 863.613 235.657L863.731 235.767L863.761 235.926C863.817 236.219 869.237 265.424 858.136 285.155C847.188 304.624 847.06 356.181 847.06 356.7V357.363L846.423 357.181C829.391 352.314 763.598 360.828 762.935 360.915L761.91 361.049L762.441 360.163Z" fill="#CCCCCC"/>
<path d="M832.332 364.119L865.789 319.509L848.536 282.54L849.789 238.694L863.933 236.081L864.083 236.156C870.954 240.174 876.28 246.38 879.211 253.78C882.353 261.636 888.87 288.361 893.784 309.398C895.067 314.813 894.939 320.466 893.412 325.816C891.884 331.167 889.009 336.035 885.061 339.956L844.018 380.999L832.332 364.119Z" fill="#CCCCCC"/>
<path d="M691.878 275.71C692.678 274.575 693.717 273.63 694.922 272.94C696.127 272.25 697.468 271.832 698.852 271.717C700.236 271.602 701.628 271.791 702.93 272.272C704.233 272.753 705.414 273.513 706.391 274.5L738.368 274.007L735.507 294.462L705.902 288.477C704.136 290.008 701.869 290.838 699.531 290.81C697.194 290.781 694.948 289.896 693.22 288.323C691.491 286.749 690.4 284.596 690.152 282.271C689.905 279.947 690.519 277.612 691.878 275.71Z" fill="#FFB8B8"/>
<path d="M707.929 293.603L712.503 273.587L768.003 268.191L783.218 231.6L783.663 230.519L789.643 225.362L789.77 225.282C802.693 219.661 815.789 217.799 828.695 219.746L829.148 219.814L829.119 220.271C828.828 224.954 827.626 229.535 825.58 233.757C819.839 245.666 784.516 296.286 784.16 296.796L784.002 297.021L707.929 293.603Z" fill="#CCCCCC"/>
<path d="M974 586.5H593C592.735 586.5 592.48 586.395 592.293 586.207C592.105 586.02 592 585.765 592 585.5C592 585.235 592.105 584.98 592.293 584.793C592.48 584.605 592.735 584.5 593 584.5H974C974.265 584.5 974.52 584.605 974.707 584.793C974.895 584.98 975 585.235 975 585.5C975 585.765 974.895 586.02 974.707 586.207C974.52 586.395 974.265 586.5 974 586.5Z" fill="#3F3D56"/>
<path d="M382 451.5H1C0.734784 451.5 0.480436 451.395 0.2929 451.207C0.105364 451.02 0 450.765 0 450.5C0 450.235 0.105364 449.98 0.2929 449.793C0.480436 449.605 0.734784 449.5 1 449.5H382C382.265 449.5 382.52 449.605 382.707 449.793C382.895 449.98 383 450.235 383 450.5C383 450.765 382.895 451.02 382.707 451.207C382.52 451.395 382.265 451.5 382 451.5Z" fill="#3F3D56"/>
</g>
<defs>
<clipPath id="clip0_6120_245">
<rect width="983.864" height="586.046" fill="white" transform="translate(0 0.5)"/>
</clipPath>
</defs>
</svg>
